<svg xmlns="http://www.w3.org/2000/svg" viewBox="0 0 354.43 369.54"><defs><style>.cls-1{isolation:isolate;}.cls-2{fill:#eee8e0;}.cls-3{fill:#fafcfb;}.cls-4{fill:#6baee9;}.cls-5{fill:#060c12;opacity:0.1;}.cls-6,.cls-7{fill:#fbc826;}.cls-7{opacity:0.5;}.cls-12,.cls-7{mix-blend-mode:multiply;}.cls-8{fill:#a86c35;}.cls-12,.cls-9{fill:#f4b9a5;}.cls-10{fill:#fdde7d;}.cls-11{fill:#2d2a44;}.cls-13{fill:#501f00;}</style></defs><title>Objects</title><g class="cls-1"><g id="Capa_2" data-name="Capa 2"><g id="Objects"><circle class="cls-2" cx="140.08" cy="140.08" r="140.08" transform="translate(-58.02 140.08) rotate(-45)"/><circle class="cls-3" cx="120.08" cy="108.08" r="65.34" transform="matrix(0.1, -1, 1, 0.1, 0.73, 216.97)"/><polygon class="cls-4" points="84.46 102.71 87.15 107.99 92.43 110.68 87.15 113.37 84.46 118.65 81.77 113.37 76.49 110.68 81.77 107.99 84.46 102.71"/><polygon class="cls-4" points="84.21 74.21 86.48 78.66 90.93 80.93 86.48 83.2 84.21 87.65 81.94 83.2 77.49 80.93 81.94 78.66 84.21 74.21"/><polygon class="cls-4" points="106.74 90.71 108.51 94.18 111.98 95.95 108.51 97.73 106.74 101.2 104.97 97.73 101.49 95.95 104.97 94.18 106.74 90.71"/><path class="cls-5" d="M354.43,360.42c0,5-54.55,9.12-121.83,9.12s-121.84-4.09-121.84-9.12,54.55-9.13,121.84-9.13S354.43,355.38,354.43,360.42Z"/><polygon class="cls-6" points="130.91 104.46 73.36 177.46 76.61 197.82 98.43 196.28 100.01 193.26 110.22 188.6 114.06 175.39 125.48 168.9 126.77 156.66 138.45 152.38 140.37 141.17 156.55 122.53 130.91 104.46"/><path class="cls-7" d="M136.66,108.35l-5.76-4.06-57.54,73,1.83,11.8A740.63,740.63,0,0,1,136.66,108.35Z"/><path class="cls-7" d="M140.37,141l16.18-18.64-9.73-6.86A695.81,695.81,0,0,0,84.57,197l13.67-1,1.57-3,10.31-4.61L114,175.19l11.44-6.48,1.31-12.22,11.68-4.28Z"/><rect class="cls-6" x="135" y="97.32" width="9.79" height="40.53" transform="translate(-37 163.49) rotate(-54.6)"/><rect class="cls-7" x="135" y="97.32" width="9.79" height="40.53" transform="translate(-37 163.49) rotate(-54.6)"/><path class="cls-6" d="M184.58,46.81A42.42,42.42,0,1,0,201,104.51,42.42,42.42,0,0,0,184.58,46.81ZM174.05,74.43a10.25,10.25,0,1,1,13.95-4A10.26,10.26,0,0,1,174.05,74.43Z"/><path class="cls-7" d="M140.24,58.76A49,49,0,0,1,154,42.46,42.41,42.41,0,0,0,160.73,126C137.07,113.08,127.73,82.73,140.24,58.76Z"/><path class="cls-4" d="M225.72,276.12l-5,74.48s14.34,0,16.92,5l-1.53-78.07Z"/><path class="cls-8" d="M210.87,360s.52-12.26,12.77-11.14,13.19,5.44,14,7.91C237.66,356.8,239.35,363,210.87,360Z"/><path class="cls-4" d="M269.2,276.12l5,74.48s-14.34,0-16.92,5l1.53-78.07Z"/><path class="cls-8" d="M284.05,360s-.51-12.26-12.77-11.14-13.19,5.44-14,7.91C257.26,356.8,255.58,363,284.05,360Z"/><rect class="cls-9" x="243.72" y="173.6" width="19" height="31"/><path class="cls-8" d="M302.65,112.85S298,156.35,295,162.6s-14.21,2.78-14.21,2.78l7.71-28.53Z"/><path class="cls-9" d="M227.26,90.31s-24.95,63.83-6.55,82.71c11.2,11.49,49.3,16.58,64,4.53,4.44-3.63,7.56-21.68,7.56-21.68s13.62-5.82,9.58-13.5-11.6,0-11.6,0l-2-30.38S262.06,78.2,227.26,90.31Z"/><path class="cls-8" d="M290.3,142.37s11-16.52,12.35-29.52-53.5-50.9-76.27-35c-6.54,4.56-19.92,23.37,15.33,21s42.75,14.34,42.75,14.34l-3.75,30.75L285,148.6a32.33,32.33,0,0,1,5.34-6.23Z"/><path class="cls-10" d="M232.77,73s18.26-27.81,53-8,16.87,57.85,16.87,57.85S244.88,95.35,232.77,73Z"/><path class="cls-6" d="M232.77,73s-26.33-.52-23.68,10c4.85,19.31,24.44,4.7,71.66,28.3C280.75,111.29,251,81.7,232.77,73Z"/><path class="cls-11" d="M262,131.07c0,3.53-1.45,6.39-3.25,6.39s-3.25-2.86-3.25-6.39,1.46-6.38,3.25-6.38S262,127.55,262,131.07Z"/><path class="cls-11" d="M232.93,128.5c-.46,3.5-2.28,6.14-4.06,5.9s-2.84-3.26-2.38-6.76,2.28-6.13,4.06-5.89S233.4,125,232.93,128.5Z"/><path class="cls-3" d="M250.31,163.73a15.23,15.23,0,0,1-6-1.25A9.49,9.49,0,0,0,263,160.05a9.3,9.3,0,0,0-.34-2.49A15.6,15.6,0,0,1,250.31,163.73Z"/><path class="cls-12" d="M236.89,148.05a6.51,6.51,0,0,1,6-4.08,7.09,7.09,0,0,1,6.25,4.08"/><path class="cls-8" d="M156.25,206.2l9.68-9.12s-7.27-27.22-23.36-10.31C132.7,197.15,156.25,206.2,156.25,206.2Z"/><path class="cls-6" d="M234.2,195.09l-.11.24c-.07.17-.19.42-.34.74-.28.63-.72,1.5-1.3,2.61a66.76,66.76,0,0,1-5.6,8.71,59.88,59.88,0,0,1-4.59,5.35,51,51,0,0,1-6.07,5.3,40,40,0,0,1-7.69,4.48l-1.06.48-1.1.4c-.75.26-1.48.55-2.24.77a37.06,37.06,0,0,1-4.69,1.07,39.74,39.74,0,0,1-9.61.38c-1.55-.22-3.14-.35-4.64-.68l-2.22-.51-1.11-.26c-.36-.1-.71-.22-1.06-.33l-2.08-.68a17.68,17.68,0,0,1-2-.73c-1.28-.54-2.56-1.06-3.77-1.6-2.33-1.2-4.58-2.31-6.46-3.53-1-.6-1.91-1.15-2.76-1.72l-2.36-1.66-2.08-1.47-1.67-1.32-3.16-2.53,12.64-13.14,2.31,2.45c.37.39.78.82,1.22,1.3s1,.91,1.5,1.41l1.72,1.62c.61.55,1.28,1.06,2,1.64,1.36,1.21,2.92,2.24,4.56,3.43l2.6,1.58a12.89,12.89,0,0,0,1.37.73l1.41.7.72.35.73.28,1.49.58c1,.39,2,.6,3.07.93a27,27,0,0,0,6.42.68,25.85,25.85,0,0,0,3.27-.25c.54-.07,1.07-.22,1.62-.31l.81-.16.8-.24a30.12,30.12,0,0,0,6.18-2.51,41.1,41.1,0,0,0,5.47-3.55,51.86,51.86,0,0,0,4.53-4,58.27,58.27,0,0,0,6-7c.65-.9,1.15-1.62,1.46-2.11.15-.23.27-.41.34-.53l.13-.2Z"/><path class="cls-8" d="M166.42,194.93s4.23-13.13-2.32-13.39-3.8,8.38-3,12.25S166.42,194.93,166.42,194.93Z"/><path class="cls-13" d="M154.17,209a2.66,2.66,0,0,1-.19-3.75l11.31-12.48a2.66,2.66,0,0,1,3.76-.18h0a2.65,2.65,0,0,1,.18,3.75l-11.31,12.48a2.65,2.65,0,0,1-3.75.18Z"/><path class="cls-6" d="M278.19,194.29c8.69,12.38,8.9,67.33,4.82,72.09s-11.85,9.78-38.75,9.78-32.56-7.09-32.91-14.58,10.79-62.39,16.89-69.29c4.32-4.89,12.17-4.22,25.22-3.19C265.09,190,273.27,187.28,278.19,194.29Z"/><path class="cls-4" d="M212.34,251.68s-13.66,37.42,32.9,37.42c49.09,0,40.18-35.54,40.18-35.54Z"/><polygon class="cls-4" points="232.77 257.6 241.35 188.6 234.67 188.6 223.21 257.6 232.77 257.6"/><polygon class="cls-4" points="264.45 260.48 263.32 189.6 270.01 189.6 274 261.13 264.45 260.48"/><path class="cls-3" d="M231.47,258.79a3.87,3.87,0,1,1-3.87-3.88A3.87,3.87,0,0,1,231.47,258.79Z"/><path class="cls-3" d="M272.47,258.79a3.87,3.87,0,1,1-3.87-3.88A3.87,3.87,0,0,1,272.47,258.79Z"/><path class="cls-8" d="M289.83,269.62l-9.29-9.51s-27.08,7.75-9.89,23.54C281.2,293.33,289.83,269.62,289.83,269.62Z"/><path class="cls-6" d="M276.45,192.13l1,.42c.63.27,1.52.68,2.64,1.23A67,67,0,0,1,289,199.1a60.13,60.13,0,0,1,5.5,4.4,49,49,0,0,1,5.52,5.88,40.63,40.63,0,0,1,6.61,11.87,38.45,38.45,0,0,1,1.23,4.66,39.08,39.08,0,0,1,.71,9.64c-.17,1.56-.28,3.16-.55,4.68-.15.75-.3,1.5-.46,2.25a18.92,18.92,0,0,1-.53,2.19c-.44,1.4-.8,2.84-1.31,4.14l-1.53,3.83c-1.15,2.35-2.22,4.65-3.41,6.55-.58,1-1.11,1.94-1.67,2.8l-1.62,2.4L296,266.5l-1.3,1.7-2.48,3.21L278.9,259l2.41-2.36,1.28-1.25,1.38-1.52,1.59-1.75c.53-.62,1-1.3,1.6-2,1.18-1.38,2.17-3,3.34-4.63l1.51-2.63c.53-.9.88-1.85,1.36-2.8a11.56,11.56,0,0,0,.59-1.47l.54-1.49c.34-1,.54-2,.84-3.09a26.39,26.39,0,0,0,.46-6.41,30.08,30.08,0,0,0-.36-3.26,32.81,32.81,0,0,0-.85-3.2,29.09,29.09,0,0,0-2.75-6.1,40.22,40.22,0,0,0-3.76-5.35,54,54,0,0,0-4.14-4.41,63.25,63.25,0,0,0-7.18-5.8c-.92-.62-1.66-1.1-2.16-1.4l-.54-.33-.2-.11Z"/><path class="cls-8" d="M278.38,259.66s-13.2-4-13.35,2.55,8.46,3.66,12.31,2.74S278.38,259.66,278.38,259.66Z"/><path class="cls-13" d="M292.67,271.66a2.66,2.66,0,0,1-3.75.25l-12.68-11.09a2.67,2.67,0,0,1-.25-3.75h0a2.66,2.66,0,0,1,3.76-.25l12.67,11.09a2.65,2.65,0,0,1,.25,3.75Z"/></g></g></g></svg>