<svg xmlns="http://www.w3.org/2000/svg" xmlns:xlink="http://www.w3.org/1999/xlink" viewBox="0 0 129.77 378.51"><defs><style>.cls-1{fill:none;}.cls-2{isolation:isolate;}.cls-3{fill:#d6bd92;}.cls-4{fill:#2a3236;}.cls-5{fill:#eedec4;}.cls-6{fill:#f0e2cc;opacity:0.55;}.cls-12,.cls-18,.cls-25,.cls-29,.cls-30,.cls-32,.cls-33,.cls-34,.cls-37,.cls-40,.cls-6,.cls-8,.cls-9{mix-blend-mode:multiply;}.cls-7{fill:url(#linear-gradient);}.cls-8{opacity:0.15;fill:url(#linear-gradient-2);}.cls-9{opacity:0.25;fill:url(#linear-gradient-3);}.cls-10{fill:#ffb989;}.cls-11{fill:#ffc39a;}.cls-12{fill:#f8d6bd;}.cls-12,.cls-25,.cls-32{opacity:0.75;}.cls-13{fill:#ec996b;}.cls-14{fill:#317f93;}.cls-15,.cls-37{fill:#ffd11a;}.cls-16{fill:#f29a2d;}.cls-17,.cls-18{fill:#4d4f5c;}.cls-18,.cls-34{opacity:0.32;}.cls-19{clip-path:url(#clip-path);}.cls-20{fill:#e05c4a;}.cls-21{fill:#e8868c;}.cls-22{fill:#fffeff;}.cls-23{fill:#f5af87;}.cls-23,.cls-37{opacity:0.65;}.cls-24{fill:url(#linear-gradient-4);}.cls-25{fill:#f4e9d8;}.cls-26{fill:#f8f0e5;}.cls-27{fill:#d8d8d7;}.cls-28,.cls-29,.cls-30{fill:#e4e4e3;}.cls-30{opacity:0.5;}.cls-31{fill:#fff;}.cls-32,.cls-33{fill:#ffdfcc;}.cls-33{opacity:0.35;}.cls-34{fill:#eaa47c;}.cls-35{fill:#ffd7c0;}.cls-36{fill:#f3c400;}.cls-38{fill:#fead00;}.cls-39,.cls-40{fill:#ffee47;}.cls-41{clip-path:url(#clip-path-2);}.cls-42{fill:url(#linear-gradient-5);}.cls-43{clip-path:url(#clip-path-3);}.cls-44{fill:url(#linear-gradient-6);}</style><linearGradient id="linear-gradient" x1="61.39" y1="356.47" x2="53.36" y2="99.45" gradientUnits="userSpaceOnUse"><stop offset="0.06" stop-color="#317f93"/><stop offset="1" stop-color="#1a7187"/></linearGradient><linearGradient id="linear-gradient-2" x1="96.48" y1="1479.35" x2="49.67" y2="-18.67" xlink:href="#linear-gradient"/><linearGradient id="linear-gradient-3" x1="66.35" y1="355.31" x2="58.35" y2="99.31" xlink:href="#linear-gradient"/><clipPath id="clip-path"><path class="cls-1" d="M53.93,49.75s11.37,3.39,16.87-.64c0,0-1.66,9.72-8.21,9.44S54.21,52.23,53.93,49.75Z"/></clipPath><linearGradient id="linear-gradient-4" x1="61.49" y1="38.23" x2="63.77" y2="38.16" gradientUnits="userSpaceOnUse"><stop offset="0" stop-color="#ffc8a2"/><stop offset="0.91" stop-color="#ffc39a"/></linearGradient><clipPath id="clip-path-2"><path class="cls-1" d="M76.56,36.41s0-6.52-5.33-5.75c-4.31.62-2.81,6.87-2.81,6.87S74.94,37.59,76.56,36.41Z"/></clipPath><linearGradient id="linear-gradient-5" x1="72.11" y1="31.86" x2="72.11" y2="38.28" gradientUnits="userSpaceOnUse"><stop offset="0" stop-color="#353746"/><stop offset="0.88" stop-color="#4d4f5c"/></linearGradient><clipPath id="clip-path-3"><path class="cls-1" d="M48.5,36.41s0-6.52,5.33-5.75c4.31.62,2.81,6.87,2.81,6.87S50.12,37.59,48.5,36.41Z"/></clipPath><linearGradient id="linear-gradient-6" x1="52.95" y1="31.45" x2="52.95" y2="38.48" xlink:href="#linear-gradient-5"/></defs><title>Layer 2</title><g class="cls-2"><g id="Capa_2" data-name="Capa 2"><g id="Layer_2" data-name="Layer 2"><path class="cls-3" d="M109.66,182.11s-6.83-7.53-1.64-16.65C108,165.46,122.87,166.45,109.66,182.11Z"/><path class="cls-4" d="M41.34,350.86c-3.37.23-6.55-.15-9.09-1.67-1.7,3.29-3.89,7-6,9C22,362.21,7.9,376,11.39,378.45c1.08.76,21.66-7,22.79-8.35s8.13-10.89,8.13-10.89v4.13h6.31V350.48l-.91-.54A40.09,40.09,0,0,1,41.34,350.86Z"/><path class="cls-4" d="M86.21,350.86c3.37.23,6.55-.15,9.09-1.67,1.7,3.29,3.88,7,6,9,4.29,4.06,18.39,17.82,14.89,20.3-1.07.76-21.66-7-22.78-8.35s-8.13-10.89-8.13-10.89v4.13H78.93V350.48l.91-.54A39.93,39.93,0,0,0,86.21,350.86Z"/><path class="cls-5" d="M63.33,80,46.83,76.1s-28.25,9.24-28.25,9.52c0,0,15.25,19.16,11.75,37.16l9.25,56.08L85.49,178l7.84-57s-1-24.5,10.75-36.75c0,0-5.82-2.12-8.63-3S79.7,76.66,79.7,76.66,64.47,80.25,63.33,80Z"/><path class="cls-6" d="M40.26,89l-3.4,0,.28.25C38.19,89.1,39.23,89,40.26,89Z"/><path class="cls-6" d="M87.27,165.14c-1-3.73-2.09-6.72-2.09-6.72C76.55,143.1,84.07,106,84.07,106c-.92.18-1.86.34-2.81.49.21-1.79.56-3.9,1-6.14l.63.15a1.26,1.26,0,0,0,1.47-.83l1.7-5.24a1.24,1.24,0,0,0-.92-1.6l-1.2-.26c1.66-7.11,3.41-13.46,3.41-13.46l-7.09-1.69c0,3.18-1,8.54-2.2,13.9L76.88,91a1.26,1.26,0,0,0-1.49,1l-1,5.22a1.23,1.23,0,0,0,.94,1.45l.93.22c-.94,3.79-1.79,6.91-2.18,8.33a159.32,159.32,0,0,1-25.29-.57c-.41-1.49-1.23-4.53-2.13-8.17l.93-.22a1.24,1.24,0,0,0,.94-1.45l-1-5.22a1.25,1.25,0,0,0-1.48-1l-1.19.25a91.24,91.24,0,0,1-2.16-13.12c-1.86.73-4.43,1.07-6.92,2,.62,2.34,2.06,7.45,3.21,12.38l-1.2.25A1.25,1.25,0,0,0,36.86,94l1.7,5.23A1.24,1.24,0,0,0,40,100l.63-.15c.42,2.16.76,4.2,1,6-2.33-.31-3.69-.54-3.69-.54s5.15,35.51-1.92,52l3.55,21.53L85.49,178Z"/><path class="cls-6" d="M93.42,115.63c-7.45,6-15.25,11.73-23.9,15.86-8.84,4.2-21.8,8-29.4-.87-3.33-3.91-6.19-8.28-9.29-12.4a29.45,29.45,0,0,1-.5,4.56l9.25,56.08L85.49,178l7.84-57S93.25,118.92,93.42,115.63Z"/><path class="cls-7" d="M91.83,268.45c.41-5.49.67-41.91,1-53.3s-1.67-37.85-2.33-43.77a65.29,65.29,0,0,0-3.31-13C78.56,143.1,86.08,106,86.08,106,66.83,109.79,40,105.3,40,105.3s5.64,38.91-3,54.22a65.48,65.48,0,0,0-3.31,13C33,178.4,31,204.87,31.33,216.26s.75,44.8,1,53.3c.2,6.8-8.83,76.27-10.5,79.64,0,0,10.83,9.92,32.33,1.88,0,0,.9-44.63-.26-70.71-.58-12.84.37-21.7,3.05-34.26l5.27-33.83,5,32.76c2.66,12.53,3.6,21.35,3,34.15-1.17,26.08-2.1,71.89-2.1,71.89,21.5,8,32.34-1.88,32.34-1.88C98.83,345.83,90.9,280.81,91.83,268.45Z"/><path class="cls-8" d="M91.83,268.45c.41-5.49.67-41.91,1-53.3s-1.67-37.85-2.33-43.77a54.29,54.29,0,0,0-2-9.1h0c-.69-2.28-1.28-3.86-1.28-3.86-.26-.47-.5-1-.74-1.47l-.18-.4c-.21-.48-.41-1-.6-1.49l-.18-.52c-.12-.35-.23-.72-.35-1.08s-.15-.51-.22-.77c-.13-.44-.24-.9-.35-1.37s-.17-.73-.25-1.1c0-.18-.07-.35-.1-.53q-.1-.52-.21-1.08h0c-1.39-8-1.07-17.63-.32-25.72a29.19,29.19,0,0,1-5.49,6.92c-5.91,5.29-14,11.73-22,12.47-6.15.57-10.73-3.63-14.43-7.55A91.35,91.35,0,0,1,40.41,149l-.21,1.13-.09.4c-.08.38-.16.75-.25,1.12,0,.13-.07.27-.1.4l-.27,1.06c-.05.16-.09.31-.14.46-.09.32-.18.64-.28,1s-.11.34-.17.51-.19.57-.29.84-.14.39-.22.58-.18.48-.28.71-.21.47-.32.71-.15.34-.23.51c-.19.39-.39.77-.59,1.14l-.07.2h0a64.72,64.72,0,0,0-3.23,12.77C33,178.4,31,204.87,31.33,216.26s.75,44.8,1,53.3c.2,6.8-8.83,76.27-10.5,79.64,0,0,10.83,9.92,32.33,1.88,0,0,.9-44.63-.26-70.71-.58-12.84.37-21.7,3.05-34.26l5.27-33.83,5,32.76c2.66,12.53,3.6,21.35,3,34.15-1.17,26.08-2.1,71.89-2.1,71.89,21.5,8,32.34-1.88,32.34-1.88C98.83,345.83,90.9,280.81,91.83,268.45Z"/><path class="cls-9" d="M90.5,171.38a65.29,65.29,0,0,0-3.31-13c-3.36-6-4.27-15.24-4.13-24.34-1,.13-2.06.25-3.1.36a18.78,18.78,0,0,0-16.1,14.37c-.26,1.08-2.16,17.89-11.71,15.06-5.62-1.67-10.66-3.81-13.31-8.66A25.08,25.08,0,0,1,37,159.52a65.48,65.48,0,0,0-3.31,13C33,178.4,31,204.87,31.33,216.26c.11,3.76.23,10,.35,16.83,8.41,3.5,17.55,6.2,26.43,5.56l4.11-26.37L66,237.1c.68-.21,1.57-.45,2.55-.71,5.73-1.5,7.53-1.9,9.2-11.22.92-5.09,2.21-11.34,3.43-16.66.58-2.54,1-11.16,2.55-14.6,0,0,4.7,1.37,8.35-1.66C91.55,183.08,90.84,174.46,90.5,171.38Z"/><path class="cls-10" d="M72.5,61c-5.51,2.8-12,1.61-18-.08-.42,4.47-2.25,13.32-5.71,15.6,0,0,3.4,4.56,15.9,4.4s13.76-4,13.76-4S72.66,72.12,72.5,61Z"/><path class="cls-11" d="M44.59,34.06s-5.75-5.4-8.25-2.28S35,45.78,39,45.91s5.62,2.37,5.62,2.37Z"/><path class="cls-12" d="M41.76,35.46c-.68-1.11-1.51-2.69-2.71-2.94s-2.29-.24-2.69.89c-.53,1.5-.47,3.84.65,7,2.63,7.37,6.2,4.43,7.58,3.33C44.34,43.46,43.68,38.56,41.76,35.46Z"/><path class="cls-13" d="M37,35.5s2.17-2.76,3.1-1,3.71,7.39,2.37,8.42-3.08,1.11-2.55-3.31S38.75,34.57,37,35.5Z"/><path class="cls-11" d="M80.14,34.06s5.75-5.4,8.25-2.28,1.38,14-2.62,14.13-5.63,2.37-5.63,2.37Z"/><path class="cls-12" d="M83,35.46c.69-1.11,1.52-2.69,2.71-2.94s2.29-.24,2.69.89c.54,1.5.47,3.84-.65,7-2.62,7.37-6.2,4.43-7.58,3.33C80.4,43.46,81.06,38.56,83,35.46Z"/><path class="cls-13" d="M87.77,35.5s-2.16-2.76-3.09-1S81,41.93,82.3,43s3.09,1.11,2.56-3.31S86,34.57,87.77,35.5Z"/><path class="cls-11" d="M65.29,11.39a25.9,25.9,0,0,1-4.9-.27C55,10.4,42.81,10.57,41.6,26.61c-1.54,20.67,10.25,42,21.33,40.84,0,0,21.33-.34,20.3-40.5C83.23,27,82.6,10.42,65.29,11.39Z"/><path class="cls-14" d="M37.68,79.07s5.52,20,6.15,28.59h7.25S44.7,85,44.62,76.83Z"/><path class="cls-15" d="M38.87,94l1.7,5.23A1.24,1.24,0,0,0,42,100l7.56-1.78a1.24,1.24,0,0,0,.94-1.45l-1-5.22a1.25,1.25,0,0,0-1.48-1l-8.26,1.76A1.25,1.25,0,0,0,38.87,94Z"/><path class="cls-16" d="M41.52,95.27l.55,1.7a1.4,1.4,0,0,0,1.66.93l3.11-.73a1.41,1.41,0,0,0,1.06-1.64l-.33-1.67a1.39,1.39,0,0,0-1.67-1.11l-3.34.71A1.4,1.4,0,0,0,41.52,95.27Z"/><path class="cls-14" d="M89.2,79.42s-5.47,20-6.09,28.64H75.86s6.33-22.52,6.41-30.69Z"/><path class="cls-15" d="M88.07,94.38l-1.7,5.24a1.26,1.26,0,0,1-1.47.83l-7.56-1.78a1.23,1.23,0,0,1-.94-1.45l1-5.22a1.24,1.24,0,0,1,1.48-1l8.26,1.76A1.24,1.24,0,0,1,88.07,94.38Z"/><path class="cls-16" d="M85.42,95.68l-.55,1.69a1.41,1.41,0,0,1-1.66.94l-3.11-.73A1.42,1.42,0,0,1,79,95.94l.33-1.68A1.39,1.39,0,0,1,81,93.16l3.34.71A1.4,1.4,0,0,1,85.42,95.68Z"/><path class="cls-17" d="M67.82,22.69a1.69,1.69,0,0,0-1.47,1.52c-.11,1.18-.17,3.3.85,3.7,1.44.56,5.19-2.5,11.57-.63,0,0,1.81-2.62-4.88-3.87A25.06,25.06,0,0,0,67.82,22.69Z"/><path class="cls-17" d="M57.4,22.49a1.68,1.68,0,0,1,1.53,1.45c.17,1.18.31,3.29-.69,3.73-1.41.62-5.29-2.27-11.58-.13,0,0-1.92-2.54,4.7-4.08A25.09,25.09,0,0,1,57.4,22.49Z"/><path class="cls-17" d="M80.76,33.17s.46,16.44-5.93,22.11c0,0-1.51-7.23-3.93-7.36-1.61-.09-4.56.66-8.31.69s-6.7-.78-8.31-.69c-2.42.13-3.93,7.36-3.93,7.36C44,49.61,44.55,36,44.55,36s-2.63-3.33-2.44-2,.3.73,1,14.64c.73,13.74,11.22,25,19.45,25.24C70.82,73.68,81.31,62.44,82,48.7c.73-13.91.86-14.47,1-15.84S80.76,33.17,80.76,33.17Z"/><path class="cls-18" d="M62.59,67.74c-8.84,0-17.54-13.91-17.54-13.91,2.46,10.08,10.81,17.73,17.54,17.93,6.74-.2,15.09-7.85,17.54-17.93C80.13,53.83,70.57,67.74,62.59,67.74Z"/><g class="cls-19"><path class="cls-20" d="M53.93,49.75s11.37,3.39,16.87-.64c0,0-1.66,9.72-8.21,9.44S54.21,52.23,53.93,49.75Z"/><path class="cls-21" d="M60.36,54.9A11.36,11.36,0,0,0,56.72,56a8.19,8.19,0,0,0,5.87,2.6,6.16,6.16,0,0,0,5.14-2.46C67,55.32,63.57,54.57,60.36,54.9Z"/><path class="cls-22" d="M51.74,48.32S66.07,52.59,73,47.51c0,0-2.31,7.93-10.35,7.93C54.39,55.44,52.55,49.73,51.74,48.32Z"/></g><path class="cls-23" d="M66.39,45.37a7.64,7.64,0,0,0-1.47.14c-5.21,4.27-2.37-13.32-3-15.37a4.07,4.07,0,0,0-1.27.45s-3.72,13.58-3.43,14.63,3.51,1.64,3.81,2.23a1.31,1.31,0,0,0,2,0c.28-.55,3.17-1.11,3.73-2.06Z"/><path class="cls-23" d="M62.23,30.14h0Z"/><path class="cls-23" d="M62.12,30.13h0Z"/><path class="cls-24" d="M61.35,30.3h-.12c.43,1.43-.14,10.46.52,14.46.37,2.28,2.72,1.38,3.89.81-3.22,0-3.16-13.62-3.72-15.45a2.67,2.67,0,0,0-.66.17Z"/><path class="cls-17" d="M49.15,5.38a1,1,0,0,0,1.24-.45C51.47,3,55.13-1.25,65.7.35c5.65.85,17.62,3,22.07,7.6,1.33,1.36,2.49,14.67-.54,23a3.63,3.63,0,0,0-4.11,1.85l-.06.1c0,.11-.19.37-.39.74a1,1,0,0,1-1.91-.48c0-3.49-.32-8.42-1.77-11.26-2.36-4.65-8.68-8.7-16.12-2.79a1,1,0,0,1-1.07.14c-2.08-1-9.36-4.1-12.35-2.6C46.11,18.33,44.71,27.51,44.6,35a1,1,0,0,1-1,1h0a1,1,0,0,1-1-.71C42.17,34,41,31.13,38.46,30.88a1,1,0,0,1-.87-.72C36.63,26.84,33,12.76,38.7,8,43.58,4,47.49,4.75,49.15,5.38Z"/><polygon class="cls-25" points="83.27 78.18 75.05 73.78 63.43 80.82 49.3 74.47 44.33 78.16 56.41 94.61 63.43 83.55 69.79 94.61 83.27 78.18"/><polygon class="cls-26" points="81.69 77.7 74.81 71.61 63.43 80.82 52.05 71.61 45.16 77.7 56.9 92.28 63.43 81.22 69.96 92.28 81.69 77.7"/><path class="cls-27" d="M14.15,177.17,7.86,207a4.2,4.2,0,0,0,2.74,4.88l54,17.55a4.05,4.05,0,0,0,5.19-3.18l7.52-39a4.18,4.18,0,0,0-3.39-5L18.7,173.92A4.06,4.06,0,0,0,14.15,177.17Z"/><path class="cls-28" d="M14,177.09,7.86,206.17a4.08,4.08,0,0,0,2.67,4.76L63.14,228a3.94,3.94,0,0,0,5.06-3.09l7.33-38a4.07,4.07,0,0,0-3.3-4.83l-53.81-8.15A4,4,0,0,0,14,177.09Z"/><path class="cls-29" d="M44.68,203.28c-3.91-3.35-6.14-8-8.68-12.35-2.81-4.84-5.64-9.89-6.89-15.39l-10.69-1.62A4,4,0,0,0,14,177.09L7.86,206.17a4.08,4.08,0,0,0,2.67,4.76L63.14,228a3.94,3.94,0,0,0,5.06-3.09l4.16-21.61C64,207.4,52.05,209.58,44.68,203.28Z"/><path class="cls-30" d="M56.08,220.72c-.19-2.75-.63-3.75-4.78-6.19-3.53-1.41-10.41-10.38-11.43-11.39A93.78,93.78,0,0,1,32,194.47c-2.09-2.64-3.68-6.22-6.06-8.57-6.24-6.17-7.28,6.56-7.22,10.57.06,3.73-.14,7.59.23,11.3a30.09,30.09,0,0,0,1.77,6.47l32.92,10.7C53.94,223.79,56.18,222.09,56.08,220.72Z"/><path class="cls-31" d="M44.5,185.91a2,2,0,1,1-1.94-1.7A1.83,1.83,0,0,1,44.5,185.91Z"/><path class="cls-3" d="M22.33,213.12s16.82-1.93,19.12-8.68C41.45,204.44,21.58,192,22.33,213.12Z"/><path class="cls-11" d="M26.85,201.88s-2.4,12.18-2.77,13.66c-.64,2.58.25,2.67,5.17,12.85a.94.94,0,0,0,1.06.52,3.89,3.89,0,0,0,2.54-1.48s2.35,3.89,3.82,2.27c.68-.75,1.44-1.76,1.44-1.76s1.18,1.82,2.6,1.61c.94-.14,1.95-1.79,2.36-3.2,0,0,1.76,1.41,2.83,1.05.58-.19,1.29-.9,2.56-2.88l-1.41-1.13s-2.34-.3-5.46-3.72c-1.41-1.54-1-3.11.57-2.74,2.09.48,1.53,1.79,4.62,4.06,2.74,2,6.57,2.19,7.23.34,1.07-3-4-4.63-5.43-5.84-3-2.59-5.7-8.08-6.65-8.67-1.57-1-5.1-2.6-5.22-5.86Z"/><path class="cls-32" d="M41,217.11c-3-2.8-3.1-8.25,0-10.82-1.73-1-4.21-2.6-4.31-5.33l-9.86.92s-2.4,12.18-2.77,13.66c-.46,1.85-.12,2.44,1.9,6.34a1.66,1.66,0,0,1,.22,0c4.52-.12,9.13.8,13.59-.57a24.24,24.24,0,0,0,2.46-.92l-.66-.69C40.63,218.62,40.51,217.57,41,217.11Z"/><path class="cls-11" d="M47.05,223.39s-2.34-.3-5.46-3.72c-1.41-1.54-1-3.11.57-2.74,2.09.48,1.53,1.79,4.62,4.06,2.74,2,6.57,2.19,7.23.34a2.31,2.31,0,0,0-.15-1.92,2.66,2.66,0,0,1-3.09,2.11,7,7,0,0,1-4.34-2.59c-1.58-2.05-4-4.05-5.8-4-.44,1.68-1.82,4.12-3.47,3.4-.57,1.81-2.48,2.55-4.54,1.73-.56.92-3.29,1-4.17-.33,0,0-2.72.81-3.36-2.62-.25-1.4,2.68-11.77,2.51-15.28l-.75.07s-2.4,12.18-2.77,13.66c-.64,2.58.65,6,5.17,12.85a1,1,0,0,0,1.06.52,3.89,3.89,0,0,0,2.54-1.48s2.35,3.89,3.82,2.27c.68-.75,1.44-1.76,1.44-1.76s1.18,1.82,2.6,1.61c.94-.14,1.95-1.79,2.36-3.2,0,0,1.76,1.41,2.83,1.05.58-.19,1.48-.06,2.74-3.25Z"/><path class="cls-33" d="M47.05,223.39a7,7,0,0,1-2.46-1.11,6.4,6.4,0,0,1-3.77,1.23,6.33,6.33,0,0,1-4.41,1.6,7.69,7.69,0,0,1-1.1-.08,7.38,7.38,0,0,1-2.49.41,7.11,7.11,0,0,1-3.27-.75,6.4,6.4,0,0,1-2.23.42h-.15c.6,1,1.29,2.09,2.08,3.28a1,1,0,0,0,1.06.52,3.89,3.89,0,0,0,2.54-1.48s2.35,3.89,3.82,2.27c.68-.75,1.44-1.76,1.44-1.76s1.18,1.82,2.6,1.61c.94-.14,1.95-1.79,2.36-3.2,0,0,1.76,1.41,2.83,1.05.58-.19,1.48-.06,2.74-3.25Z"/><path class="cls-33" d="M53.86,219.41a2.66,2.66,0,0,1-3.09,2.11c-1.37-.13-4.39-1.42-4.62-1,.2.16.4.33.63.5,2.74,2,6.57,2.19,7.23.34A2.31,2.31,0,0,0,53.86,219.41Z"/><path class="cls-34" d="M42.81,227.07a7.08,7.08,0,0,0,.25-.68c-.28-.66-3.78-5.26-4.85-6.7C38.08,220,41.24,225.26,42.81,227.07Z"/><path class="cls-34" d="M37.65,228.54c.09-.22.39-.37.46-.6-.28-.66-4-5.33-5.06-6.78C32.92,221.44,36.08,226.73,37.65,228.54Z"/><path class="cls-34" d="M32.43,227.94a1.45,1.45,0,0,0,.41-.47c-.27-.64-2.86-3.69-3.88-5.07C28.83,222.66,30.93,226.21,32.43,227.94Z"/><path class="cls-35" d="M49.43,218c1.21-1.53,3.94.79,4,1,0,0,.15,1.62-1.91,2.07A3.41,3.41,0,0,1,49.8,220C49.07,219.24,49.08,218.48,49.43,218Z"/><path class="cls-5" d="M18.58,85.62S-1.82,152.53.13,160s20.53,49.26,22.2,53.09c0,0,6.07-8.85,19.12-8.68,0,0-22.37-42.24-22.87-44.08s12-34.13,12.23-39.57S35,95,18.58,85.62Z"/><path class="cls-6" d="M29.39,98.48c-.32,7.49-.55,20-4.93,30.76-7.3,18-5.93,26.55-6.34,30.6l.46.16c.45-3.94,12-34,12.23-39.21C31,117.28,32.68,107.49,29.39,98.48Z"/><path class="cls-6" d="M24.1,202.47a52.68,52.68,0,0,1-9-14.27c-2.93-6.53-6-12.58-10.85-17.21l-.07,0c6.13,15.08,16.89,39.29,18.14,42.16a21,21,0,0,1,6.34-5.45C27.11,206,25.62,204.17,24.1,202.47Z"/><path class="cls-5" d="M104.08,84.28S88.57,95.16,93.33,121c0,0,14.5,24.93,16,28.34s-2,15.66-2,15.66,11.37,4.25,2.33,17.08c0,0,23.17-15.08,19.76-30.33C126.67,139.47,105.5,86,104.08,84.28Z"/><path class="cls-6" d="M115.93,164.46a8.31,8.31,0,0,1-7.78-2.61c-.45,1.87-.82,3.18-.82,3.18s11.37,4.25,2.33,17.08c0,0,18.82-12.25,20-25.84C126.94,161.16,121.73,163.44,115.93,164.46Z"/><path class="cls-6" d="M109.48,149.82a7.67,7.67,0,0,0,.34-3.08,26.54,26.54,0,0,0-2.76-9.06c-3.08-6-6.83-11.93-8.84-18.44a72,72,0,0,1-3-22.73c-2.4,5.84-3.85,13.92-1.9,24.52,0,0,14.5,24.93,16,28.34A2.64,2.64,0,0,1,109.48,149.82Z"/><path class="cls-36" d="M87.62,138.78c-.68-1.18-2.67-3.76-2.8-4.16-7.54,2.75-14.87,5.79-16.38,20.15a41.5,41.5,0,0,0-.28,5.68v1.1c.19,13.68,10.52,18.08,19.3,19.34-.33-.63,2-1.5,4.7-2.28L94.29,144C91.28,143.8,89.16,141.45,87.62,138.78Z"/><path class="cls-15" d="M89.36,136.45c-.85.29-5.13,1.62-6,1.89a11.63,11.63,0,0,1,1.18-3.62c-7.45,2.73-14.62,5.86-16.11,20.05a41.5,41.5,0,0,0-.28,5.68v1.1c.19,13.68,10.52,18.08,19.3,19.34a34,34,0,0,1-1.91-4.5,57.3,57.3,0,0,0,14.11.39c16,1.36,20.51-15.9,15.41-28.78-2.1-5.3-8.37-9-13.46-10.26C96,136.36,90.33,136.11,89.36,136.45Z"/><path class="cls-37" d="M113.06,171.39A20.13,20.13,0,0,0,116.82,161h0a27.27,27.27,0,0,0,0-5.42,54.82,54.82,0,0,1-6.48,1.23c-1,.15-8.82,1.23-8.94.53A3.12,3.12,0,0,0,97.11,155a3.9,3.9,0,0,0-1.65,1.8c-.3.61-2.71-.44-3.28-.68-6.27-5.65-6.57-14.79-5.43-18.8-1.12.35-2.26.68-3.38,1s-6,7.69-6.66,20.25a17.17,17.17,0,0,0,2,8.77,19,19,0,0,0,2.94,3.58,45.15,45.15,0,0,0,3.64,3.55c.3.68.62,1.35,1,2,.74.1,1.46.19,2.18.26h0a53.75,53.75,0,0,0,11.2,0C104.79,177.22,109.85,175.57,113.06,171.39Z"/><path class="cls-38" d="M115.35,148.7l-29,1.48v1.21l30,1.32A30.7,30.7,0,0,0,115.35,148.7Z"/><path class="cls-38" d="M116.86,160.54l-30.49,1.55v1.21l29.83,1.32A24.63,24.63,0,0,0,116.86,160.54Z"/><path class="cls-38" d="M116.65,154.2l-32.9,1.61V157l33.19,2A29,29,0,0,0,116.65,154.2Z"/><path class="cls-39" d="M75.31,161.45c0-17.12,5.1-22.31,5.17-22.84-4,3.92-6.66,10.41-6.5,22.84.12,9,4.11,14.23,9.21,17.22C83.08,178.33,75.31,172,75.31,161.45Z"/><path class="cls-40" d="M115.3,156.39a25.54,25.54,0,0,1-2.52,3.33c-3.67,3.95-10.76,2.43-11.8-2.68-.53-2.61-3.41-3.88-5.38-2a4.11,4.11,0,0,0-1.16,2.75c-.06,1.08,0,2.16,0,3.24.09,7.41-8.75,9.26-12.91,4-1.27-1.6-3.41-2.88-5.52-1.74-4,2.18-3.7,6.22-3.7,10.35,3.85,4.54,9.8,6.49,15.18,7.26-.33-.63,2-1.5,4.7-2.28l.1-1.6a50,50,0,0,0,5.34-.07c1.29-.07,2.06-.16,2.06-.16l1.18.06h.81c12.34-.15,17-12.24,14.94-23.46C116.06,154.27,115.82,155.6,115.3,156.39Z"/><path class="cls-11" d="M109.83,165.91s-1.75,2.37-3.5,2-.69-1.32-3.75-3.57-2.54-6.5-3.08-7.5-4.11-1.06-3.23,4.44a10.5,10.5,0,0,0,2,4.38c1.5,1.68,1.35,2.91-.23,3-1.94.06-1.29-.31-6.76,1.2-3.86,1.05-5.86.35-6.08.29-1.84-.57-5.62-6.19-8.18-4.26-2.78,2.11,6.31,8.69,7.31,8.69s8.62-.94,8.62-.94a70.76,70.76,0,0,1-8.45,1c-2.66,0-7.27-6.72-9.61-5.51-2.69,1.4,3.48,8.17,6.56,8.84s10.27-.66,11.47-.95c0,0-8.6,1.41-10.86,1.17-2.77-.3-6.11-4.51-6.48-4.47s-1.77,1.87,0,4.16a13,13,0,0,0,5.13,3.39,3.08,3.08,0,0,0,1.23.25,31,31,0,0,0,10.48-1.23,34.74,34.74,0,0,1-10.29,1.31A14.1,14.1,0,0,1,77.66,180c-.26-.19-.81,2.48,2.31,3.64a15.82,15.82,0,0,0,7.48.46c5.53-.71,6.38-2.27,7.5-2.6s6.5-2.52,7.44-2.59,10.31-1.19,11.69-5.63S112.27,166.78,109.83,165.91Z"/><path class="cls-32" d="M109.68,166.7s-1.53,2.08-3.07,1.75a1.39,1.39,0,0,1-.85-.43,12.94,12.94,0,0,1-1.43,8.1c-.25.48-5.53,3-5.84,3.41.64-.07,3-1.46,5.18-1.62,4-.31,9-2.49,9.74-4.78C114.61,169.23,111.82,167.47,109.68,166.7Z"/><path class="cls-34" d="M92.26,173.71a55.32,55.32,0,0,1-7.45.92c-2.1,0-5.34-3.28-5.47-3.42,1.51,2.28,3,3.41,4.74,3.91C86.45,175.8,92.26,173.71,92.26,173.71Z"/><path class="cls-34" d="M90.22,177.5a56.81,56.81,0,0,1-7.67.78c-2.1-.05-5.27-3-5.4-3.18a7.92,7.92,0,0,0,4.75,3.69C84.27,179.46,90.22,177.5,90.22,177.5Z"/><path class="cls-34" d="M90.74,180.71a33.69,33.69,0,0,1-7,.88,8.45,8.45,0,0,1-4.86-1.05,7.86,7.86,0,0,0,4.61,1.62C86.17,182.39,90.74,180.71,90.74,180.71Z"/><path class="cls-33" d="M83,173.63a7.81,7.81,0,0,1,.48-4.71c-2-1.73-4.57-4.53-6.49-3.08-2.24,1.69,3.19,6.27,5.93,8A1.8,1.8,0,0,1,83,173.63Z"/><path class="cls-33" d="M82.49,177.42a7.92,7.92,0,0,1,.39-3.39c-2.65-1.6-6.08-5.91-8-4.92-2.69,1.4,3.48,8.17,6.56,8.84a7.74,7.74,0,0,0,.91.12C82.4,177.85,82.44,177.64,82.49,177.42Z"/><path class="cls-33" d="M82.34,178.18h-.28c-2.77-.3-6.11-4.51-6.48-4.47s-1.77,1.87,0,4.16a13,13,0,0,0,5.13,3.39,3.08,3.08,0,0,0,1.23.25h.64A8.16,8.16,0,0,1,82.34,178.18Z"/><path class="cls-33" d="M82.77,182.07c-.06-.16-.12-.33-.17-.49s-.31,0-.47,0A14.1,14.1,0,0,1,77.66,180c-.26-.19-.81,2.48,2.31,3.64a11.67,11.67,0,0,0,3.32.62A8.37,8.37,0,0,1,82.77,182.07Z"/><path class="cls-35" d="M77.59,170.52a.8.8,0,0,1,.28,1,2.13,2.13,0,0,1-1.71,1.43c-.23,0-2.76-2.31-1-3.34C75.66,169.26,76.91,170,77.59,170.52Z"/><path class="cls-35" d="M77.79,176.33s-.47,1.54-1.85,1.44c-.2,0-2-2.6-.23-3.3C76,174.33,77.79,176.33,77.79,176.33Z"/><path class="cls-35" d="M77.92,180.61c-.77,1.47,1.69,2.5,1.84,2.36a1.62,1.62,0,0,0,.52-1.39C79.46,181.4,78,180.51,77.92,180.61Z"/><path class="cls-35" d="M80.74,167.49s.37,1.38-1.91,1.69c-.24,0-2.81-2.23-.91-3.24C79.12,165.3,80.74,167.49,80.74,167.49Z"/><path class="cls-35" d="M99.05,156.92c-2-.9-1.44,3.24-1.23,3.37a1.57,1.57,0,0,0,2.17-.16v0C99.63,159.21,99.62,157.18,99.05,156.92Z"/><path class="cls-5" d="M129.42,151.78c-.1-.48-.24-1-.4-1.62H117.36a16,16,0,0,1-1.27,7.43c-1.56,3.68-5.88,8.63-7.16,9.29,1.76.81,6.4,3.71,1.28,14.89C110.21,181.77,132.83,167,129.42,151.78Z"/><g class="cls-41"><path class="cls-22" d="M76.56,36.41s0-6.52-5.33-5.75c-4.31.62-2.81,6.87-2.81,6.87S74.94,37.59,76.56,36.41Z"/><path class="cls-42" d="M69.17,35c0,2,1.32,3.65,2.94,3.65s3-1.64,3-3.65-1.32-3.66-3-3.66S69.17,33,69.17,35Z"/><path class="cls-17" d="M73.28,32.61c-1.78,0-3.83,0-4.94.9.31-1.35.63-2.85,2.36-3.39,3.9-1.2,4.77,1.79,5.5,3.08A6.91,6.91,0,0,0,73.28,32.61Z"/></g><path class="cls-22" d="M74.12,34.07a.58.58,0,1,1-.58-.58A.58.58,0,0,1,74.12,34.07Z"/><g class="cls-43"><path class="cls-22" d="M48.5,36.41s0-6.52,5.33-5.75c4.31.62,2.81,6.87,2.81,6.87S50.12,37.59,48.5,36.41Z"/><path class="cls-44" d="M55.89,35c0,2-1.32,3.65-2.94,3.65S50,37,50,35s1.32-3.66,3-3.66S55.89,33,55.89,35Z"/><path class="cls-17" d="M51.75,32.61c1.79,0,3.86,0,5,.9-.31-1.35-1.47-3.26-3.27-3.52-2.32-.34-3.88,1.92-4.62,3.21A6.94,6.94,0,0,1,51.75,32.61Z"/></g><circle class="cls-22" cx="54.07" cy="34.14" r="0.58"/></g></g></g></svg>