<svg xmlns="http://www.w3.org/2000/svg" viewBox="0 0 160.44 352.49"><defs><style>.cls-1,.cls-6,.cls-7{fill:#10100f;}.cls-1,.cls-34{opacity:0.2;}.cls-2{fill:#009bba;}.cls-3{fill:#f1bc87;}.cls-15,.cls-34,.cls-4{fill:#fff;}.cls-5{fill:#ffc990;}.cls-12,.cls-6{opacity:0.1;}.cls-7{opacity:0.05;}.cls-8{fill:#e8e2ac;}.cls-10,.cls-8,.cls-9{fill-rule:evenodd;}.cls-26,.cls-9{fill:#d88e1d;}.cls-10{fill:#faa322;}.cls-11{fill:#aa6e33;}.cls-12{fill:#050505;}.cls-13{fill:#c11c04;}.cls-14{fill:#dc1f05;}.cls-15{opacity:0.75;}.cls-16{fill:#424241;}.cls-17{fill:#5b5a5a;}.cls-18{fill:#292928;}.cls-19{fill:#007991;}.cls-20{fill:#313030;}.cls-21{fill:#616160;}.cls-22{fill:#d71803;}.cls-23{fill:#484848;}.cls-24{fill:#7d7d7d;}.cls-25{fill:#bcbcbc;}.cls-27{fill:#936037;}.cls-28{fill:#804b25;}.cls-29{fill:#d49966;}.cls-30{opacity:0.3;}.cls-31{fill:#3c3c3b;}.cls-32{fill:#c4986e;}.cls-33{fill:#00accf;}</style></defs><title>Recurso 1</title><g id="Capa_2" data-name="Capa 2"><g id="Layer_4" data-name="Layer 4"><path class="cls-1" d="M160.44,338.36c0,7.81-33.9,14.13-75.72,14.13S9,346.17,9,338.36s33.9-14.12,75.72-14.12S160.44,330.56,160.44,338.36Z"/><path class="cls-2" d="M118.37,148.41V184.7l-.1.05-1.26.68c-8.27,4.4-15.58,7.43-22.53,9a48.46,48.46,0,0,1-9,1.19q-.66,0-1.32,0a43.44,43.44,0,0,1-5.57-.31c-6.8-.8-13.7-3.18-21.33-7.22-1.9-1-3.85-2.12-5.85-3.34l-.08-.05V148.41Z"/><rect class="cls-3" x="73.51" y="57.47" width="23.72" height="22.14"/><path class="cls-4" d="M139.65,112.72l-15.22,8.88s0,0,0,0l-2.11,1.23-.47,3.28-3.46,24.39H53.85L50,130.57l-.88-4.48-.64-3.26-7-4.1-10.3-6L46.77,78a10.85,10.85,0,0,1,3.59-3.14h0a9.33,9.33,0,0,1,1.86-.76c.88-.38,1.84-.8,2.82-1.18l.4-.17c2.9-1.21,6.15-2.44,9.05-3.54,2.37-.9,4.54-1.7,6.15-2.29l2.85-1c0,4.56,5.94,6.82,11.85,6.82s11.87-2.26,11.87-6.82l2.8,1c1.61.59,3.8,1.4,6.22,2.31,2.9,1.1,6.12,2.33,9,3.54l.39.17c1,.38,1.94.8,2.82,1.18a9.33,9.33,0,0,1,1.86.76h0A10.69,10.69,0,0,1,124,78Z"/><path class="cls-5" d="M147.78,130.75l-11.56,2.37-13.37,2.78-.41-9.74-.13-3.33,2.1-1.24s0,0,0,0l15.23-8.88Z"/><path class="cls-2" d="M122.46,126.16v.19l-1,10.32-3.1,32.83h-67l-2.54-35.61v0l-.54-7.69h0l.1,0h0l.64,0a10.21,10.21,0,0,0,2.6-.64l.06,0a10.48,10.48,0,0,0,6.6-10.52c0-.19,0-.36,0-.53L58,110.86c-.05-.58-.1-1.18-.13-1.77l-.28-3.61,0-.49v0l-2.52-32v0a3.84,3.84,0,0,1,.4-.14c2.9-1.21,6.15-2.44,9.05-3.54l2.69,34.9h36.34l2.71-34.9c2.9,1.1,6.12,2.33,9,3.54a3,3,0,0,1,.39.14v0l-2.07,26.49v0l-1.21,15.4c-.45,5.87,3.57,10.92,9.43,11.26h.09l.52,0Z"/><path class="cls-5" d="M52.58,122.79l-.9,2.66,0,.1a0,0,0,0,1,0,0l-3.76,11.12,0,.06-.35,1h0l-2.06-.61-.62-.18-20-5.83,6.31-18.42,9.76,4.56,0,0Z"/><path class="cls-6" d="M138.86,125.54c-5.11,0-10.18-1.05-14.44-4,0,0,0,0,0,0-5.47-3.71-9.59-10.5-10.81-22.13-1.77,10.92-2.77,24.18-7.1,34.12l16.35,2.32,13.37-2.78Z"/><path class="cls-7" d="M100.07,67.5c0,4.47-6.6,8.1-14.73,8.1S70.62,72,70.62,67.5a3.64,3.64,0,0,1,0-.57l2.85-1c0,4.56,5.94,6.82,11.85,6.82s11.87-2.26,11.87-6.82l2.8,1A3.9,3.9,0,0,1,100.07,67.5Z"/><path class="cls-5" d="M85.11,61.28h0Z"/><path class="cls-5" d="M85.28,61.28h0Z"/><path class="cls-5" d="M85.11,61.38h0Z"/><path class="cls-8" d="M13.26,95.71l3,1.64a2.68,2.68,0,0,0,3.64-1.09l0-.05a2.69,2.69,0,0,0-1.09-3.64l-3-1.63C12.87,89.25,10.16,93.66,13.26,95.71Z"/><path class="cls-5" d="M148.53,134.83v.22c0,5.84-4.67,11.17-10.37,10.57-2.47-.25-8.3-1.58-11.53-2.33l-2.26-.55v-16l2.1-.44c3.2-.65,9.19-1.85,11.69-2.07,4.35-.38,8.09,2.56,9.63,6.57A11.23,11.23,0,0,1,148.53,134.83Z"/><path class="cls-6" d="M45.31,127.26l-5.91,2L35.26,104c4,11,6.72,13.08,12,16.32Z"/><path class="cls-5" d="M47.47,137.76a11.3,11.3,0,0,1-7.15,7.61l-.21.07C34.3,147.53,28,144.76,26,139.27l-1.11-4.87-.7-3.12h0l-1.4-6.23-1.5-6.57-2.06-9.1-.9-4,.92-.38.19-.07,1.85-.76,1.88-.77,1.69-.69L33,99.43l3.16,7.13,1.64,3.72,3.11,7,6.34,14.33a9.49,9.49,0,0,1,.3,1h0c.06.22.1.44.14.66A10,10,0,0,1,47.47,137.76Z"/><path class="cls-9" d="M36.16,106.56l-2.77-6.81c-.1-.27-.16-.41-.16-.41V88.73l-1.49-4.85-1-.55-1.35-.74-1-1.67-2.7-4.65-2.57-.85-1.88-.61-1-.33-.87-.29-.83-.27-2.31-.75-2-.65s-.28.85-.66,2.28c-.24,1-.52,2.16-.8,3.53,0,0,0,.06,0,.09-.18.87-.33,1.8-.47,2.79-.1.73-.19,1.47-.26,2.24,0,.22,0,.44,0,.65a2.31,2.31,0,0,0,0,.37,34.81,34.81,0,0,0-.1,4.1c0,.2,0,.38,0,.58a2.17,2.17,0,0,0,0,.26A24.56,24.56,0,0,0,13,95.59a14.75,14.75,0,0,0,3.24,5.74,12.45,12.45,0,0,0,3,2.38s0,0,0,0,.08.52.17,1.24c.4,3.16,1.36,11.21,1.36,11.21l.49-.16,1.88-.66L30,113l7.64-2.65Z"/><path class="cls-10" d="M11.56,89.91l.12,3.45A2.7,2.7,0,0,0,14.46,96h0a2.69,2.69,0,0,0,2.6-2.78L17,89.72C16.94,86.31,11.77,86.2,11.56,89.91Z"/><path class="cls-10" d="M11.07,83.21l-.33,3.44a2.7,2.7,0,0,0,2.42,2.93h.06a2.68,2.68,0,0,0,2.92-2.42l.33-3.43C16.86,80.34,11.75,79.56,11.07,83.21Z"/><path class="cls-10" d="M10.71,76.8l-.82,3.35a2.68,2.68,0,0,0,2,3.25h.06a2.68,2.68,0,0,0,3.24-2L16,78.09C16.86,74.8,11.92,73.28,10.71,76.8Z"/><path class="cls-11" d="M21.7,125.54H17.75a1.47,1.47,0,0,1-1.47-1.47V57.55h6.89v66.52A1.47,1.47,0,0,1,21.7,125.54Z"/><polygon class="cls-12" points="21.3 123.67 21.3 59.43 19.49 59.43 19.17 123.67 21.3 123.67"/><path class="cls-13" d="M24,53.34H15.46v7.09a1.34,1.34,0,0,0,1.34,1.34h5.85A1.34,1.34,0,0,0,24,60.43Z"/><path class="cls-14" d="M37.92,38.6a19.2,19.2,0,0,0-.14-2.3H1.67a19.2,19.2,0,0,0-.14,2.3,18.19,18.19,0,0,0,36.11,3.15A17.33,17.33,0,0,0,37.92,38.6Z"/><path class="cls-12" d="M36,38.17c0,.14,0,.28,0,.43a16.73,16.73,0,0,1-.25,2.83A16.27,16.27,0,0,1,19.72,54.91h-.07C26.5,51.81,31,47.34,31.19,38.17Z"/><path class="cls-15" d="M7,39.74c0,.26,0,.52,0,.77a17.07,17.07,0,0,0,8,14.43,17,17,0,0,1-12-13.39,15.42,15.42,0,0,1-.21-1.81Z"/><rect class="cls-13" y="36.3" width="39.45" height="5.45" rx="1.34"/><path class="cls-10" d="M33.22,99.34c2.77-5,.66-12.13.32-13l-1.07-2.61a10.27,10.27,0,0,0-2.72-4l-3.3,2.83s-1.85.46-1.85.48-3,6.65-3.12,10.37c0,.25,0,.51,0,.77a12.33,12.33,0,0,0,3.9,9,10.23,10.23,0,0,0,2.47,1.67,8.65,8.65,0,0,0,1,.42c.07,0,1.2,7.84,1.22,7.64l8-2.76C37.21,108.45,33.21,99.36,33.22,99.34Z"/><path class="cls-10" d="M13.12,78.45c.62.12,2.52.26,2.52.26a3.18,3.18,0,0,0,3.62-2.64V76a3.19,3.19,0,0,0-3-3.3l-2.52-.25C8.65,72.23,8.43,78.15,13.12,78.45Z"/><path class="cls-10" d="M25.39,72.45c-.84-2.34-2.63-3-4-2.31l0,0A2.43,2.43,0,0,0,20,72.25c0,3.34,4,12.54,5.35,12.53l5.52-1.47c-.35,0-.25-2.7-1.08-3.51A20.32,20.32,0,0,1,25.39,72.45Z"/><path class="cls-10" d="M12.92,84.29c.61.16,2.49.43,2.49.43a3.17,3.17,0,0,0,3.8-2.37v-.06a3.19,3.19,0,0,0-2.79-3.51l-2.49-.43C8.9,77.77,8.27,83.65,12.92,84.29Z"/><path class="cls-10" d="M12.19,89.61l3.74,2.11a3.18,3.18,0,0,0,4.39-1l0-.06a3.19,3.19,0,0,0-1.43-4.27L15.18,84.3C11.89,82.6,8.83,87.08,12.19,89.61Z"/><path class="cls-10" d="M13.87,96.57c.5.27,2.09.91,2.09.91a2.86,2.86,0,0,0,3.83-1.26l0,0a2.85,2.85,0,0,0-1.69-3.66L16,91.6C11.75,90,9.94,95,13.87,96.57Z"/><path class="cls-16" d="M76.08,329.8v8.72H28.14v-3.76c0-.16,0-.3,0-.46s0-.3,0-.45,0-.29,0-.44,0-.32.07-.49l.08-.4a9.07,9.07,0,0,1,.48-1.66,1.45,1.45,0,0,1,.16-.38,0,0,0,0,1,0,0,6.29,6.29,0,0,1,.32-.7l.28-.54s0,0,.06-.07c.11-.2.24-.39.36-.58l.24-.34a11.75,11.75,0,0,1,1.22-1.41c.11-.11.25-.23.39-.35a10,10,0,0,1,1.66-1.22l.28-.16c.19-.11.39-.21.59-.31h0c.23-.1.48-.22.73-.31a6.36,6.36,0,0,1,.77-.27,10.92,10.92,0,0,1,3.31-.51h4.52a9.1,9.1,0,0,0,1.39-.1,6.82,6.82,0,0,0,1.42-.33.24.24,0,0,0,.09,0,6.11,6.11,0,0,0,1.17-.44,9.59,9.59,0,0,0,1.33-.74,7.33,7.33,0,0,0,.9-.68.39.39,0,0,0,.1-.08,9.88,9.88,0,0,0,1.06-1.09,8.4,8.4,0,0,0,.84-1.17s0,0,0,0a8.23,8.23,0,0,0,.7-1.39,8.81,8.81,0,0,0,.4-1.16l0-.14h0l.4-1.48.43-1.63.39-1.47.54-2,4,.37,10.42,1h0l3.65.34.89.09.45,2.79.89,5.59c0,.33.11.64.15,1s.1.74.14,1.12.08.54.1.81c.06.48.1,1,.14,1.47a4.78,4.78,0,0,1,.06.53c0,.44.06.88.08,1.31,0,.14,0,.27,0,.41s0,0,0,0a0,0,0,0,1,0,0c0,.25,0,.52,0,.77s0,.66,0,1C76.08,328.79,76.08,329.3,76.08,329.8Z"/><path class="cls-17" d="M28.14,334.76v3.6H56.71L56,328.9c-7.48.45-12.45.14-12.9-5.23H39.23a11.09,11.09,0,0,0-11.09,11.09Z"/><path class="cls-18" d="M76.08,329.8v8.72l-13.11,0-8.44,0-3.39,0,0-.06.17-.61L53.75,329l.28-1v0l.74-2.67.48-1.75.81-2.9.14-.49a12.46,12.46,0,0,1,13.2-9.1h0l3.65.34.89.09.45,2.79.89,5.59c0,.33.11.64.15,1s.1.74.14,1.12.08.54.1.81c.06.48.1,1,.14,1.47a4.78,4.78,0,0,1,.06.53c0,.44.06.88.08,1.31,0,.14,0,.27,0,.41s0,0,0,0a0,0,0,0,1,0,0c0,.25,0,.52,0,.77s0,.66,0,1C76.08,328.79,76.08,329.3,76.08,329.8Z"/><path class="cls-17" d="M76.08,329.8v8.72H54.51l0-.08,0-.08.17-.61,1.51-5.38h0l.86-3,.25-.87,1.19-4.29h0l.05-.21.4-1.42a9.38,9.38,0,0,1,.34-1A11.91,11.91,0,0,1,71.56,314h.09l2.76.25.89,5.59c0,.33.11.64.15,1s.1.74.14,1.12.08.54.1.81c.06.48.1,1,.14,1.47a4.78,4.78,0,0,1,.06.53c0,.44.06.88.08,1.31l0,.41v.07c0,.25,0,.5,0,.77s0,.66,0,1C76.08,328.79,76.08,329.3,76.08,329.8Z"/><path class="cls-18" d="M76.08,329.8v8.72H63v-2.21a8.3,8.3,0,0,1,1.58-4.83,10.16,10.16,0,0,1,1.63-1.79,13.11,13.11,0,0,1,5.92-2.89h0a14.81,14.81,0,0,1,3.23-.34H76v.07c0,.25,0,.5,0,.77s0,.66,0,1C76.08,328.79,76.08,329.3,76.08,329.8Z"/><path class="cls-18" d="M28.14,334.76v3.6h9v-.08a7.8,7.8,0,0,0-7.8-7.8H29A11.09,11.09,0,0,0,28.14,334.76Z"/><path class="cls-18" d="M54.27,313.25l2,.31a.76.76,0,0,0,.89-.63h0a.78.78,0,0,0-.64-.9l-2-.31a.78.78,0,0,0-.9.64h0A.77.77,0,0,0,54.27,313.25Z"/><path class="cls-18" d="M53.38,316.34l2,.31a.77.77,0,0,0,.89-.63v0a.77.77,0,0,0-.63-.89l-2-.31a.76.76,0,0,0-.89.63h0A.77.77,0,0,0,53.38,316.34Z"/><path class="cls-18" d="M55,319.12v0a.78.78,0,0,1-1,.49l-1.77-.56-.17-.05h0a.82.82,0,0,1-.24-.15.75.75,0,0,1-.23-.83h0a.76.76,0,0,1,1-.49l.2.06,1.74.56A.76.76,0,0,1,55,319.12Z"/><path class="cls-18" d="M53.29,322.19v0a.78.78,0,0,1-1,.29l-1.79-.95a.78.78,0,0,1-.29-.28.8.8,0,0,1,0-.78h0a.77.77,0,0,1,1.06-.3h0l1.78,1A.77.77,0,0,1,53.29,322.19Z"/><path class="cls-18" d="M50.35,324.71h0a.78.78,0,0,1-1.08-.12L48,323a.5.5,0,0,1-.13-.25.77.77,0,0,1,.25-.83h0a.78.78,0,0,1,1.07.1l0,0,1.29,1.57A.77.77,0,0,1,50.35,324.71Z"/><path class="cls-18" d="M45.16,323.87l.61,1.94a.78.78,0,0,0,1,.53h0a.77.77,0,0,0,.52-1l-.61-1.94a.77.77,0,0,0-1-.52h0A.78.78,0,0,0,45.16,323.87Z"/><path class="cls-18" d="M57.54,341.7l.74-.21,2.58-.87v1.08H77v-3.95H27.22v3.95Z"/><path class="cls-16" d="M141.59,334.76v3.76H93.64V329.8c0-.5,0-1,0-1.51s0-1.17.08-1.76v-.07c0-.28,0-.57.05-.86s0-.57.06-.86c.11-1.31.25-2.63.44-3.92,0-.33.09-.65.15-1l.85-5.41,0-.18.45-2.79,4.55-.43,10.42-1,4-.37.54,2,.39,1.47.43,1.63.4,1.48h0l0,.14a7.56,7.56,0,0,0,.4,1.16,7.25,7.25,0,0,0,.71,1.42l0,0a8.38,8.38,0,0,0,.83,1.15,8.84,8.84,0,0,0,1,1.07.35.35,0,0,0,.1.08,7.65,7.65,0,0,0,.9.69,9,9,0,0,0,1.33.74,6.88,6.88,0,0,0,1.24.47h0a7.62,7.62,0,0,0,1.43.33,9.32,9.32,0,0,0,1.4.1h4.52a11,11,0,0,1,3.31.51,6.86,6.86,0,0,1,.76.27c.26.09.51.21.75.32a11,11,0,0,1,3.37,2.53,5.66,5.66,0,0,1,.55.66.53.53,0,0,1,.12.14,4.59,4.59,0,0,1,.35.51,1.46,1.46,0,0,1,.22.33,1.79,1.79,0,0,1,.19.32,3.29,3.29,0,0,1,.26.49c.13.24.24.48.35.73s.14.34.2.52.16.45.22.68a.66.66,0,0,1,0,.15c.06.23.13.46.17.69s0,.26.07.4,0,.32.07.49a3.29,3.29,0,0,1,.05.44c0,.15,0,.29,0,.45S141.59,334.6,141.59,334.76Z"/><path class="cls-17" d="M141.59,334.76v3.6H113l.76-9.46c7.48.45,12.45.14,12.9-5.23h3.82a11.09,11.09,0,0,1,11.09,11.09Z"/><path class="cls-18" d="M118.59,338.42l-3.39,0-8.44,0-13.12,0V329.8c0-.5,0-1,0-1.51s0-1.17.08-1.76v-.07c0-.28,0-.57.05-.86s0-.57.06-.86c.11-1.31.25-2.63.44-3.92,0-.33.09-.65.15-1l.86-5.4,0-.19.44-2.79,4.55-.43a12.47,12.47,0,0,1,13.2,9.1l.15.53.79,2.86.16.57,1.09,3.94.27,1,0,.2,2.37,8.54.17.61Z"/><path class="cls-17" d="M115.22,338.52H93.64V329.8c0-.5,0-1,0-1.51s0-1.17.08-1.76v-.07c0-.28,0-.57.05-.86s0-.57.06-.86c.11-1.31.25-2.63.44-3.92,0-.33.09-.65.15-1l.85-5.41,0-.18h0l2.84-.26a11.91,11.91,0,0,1,12.24,7.55c.13.32.23.66.33,1l.29,1.06.16.57h0l1.45,5.2.35,1.25.5,1.75h0l1.51,5.38.17.61,0,.08Z"/><path class="cls-18" d="M106.76,336.31v2.21H93.64V329.8c0-.5,0-1,0-1.51s0-1.17.08-1.76v-.07h.64a15.06,15.06,0,0,1,3.25.34,12.25,12.25,0,0,1,7.56,4.72,6.1,6.1,0,0,1,.43.65A8.21,8.21,0,0,1,106.76,336.31Z"/><path class="cls-18" d="M141.59,334.76v3.6h-9v-.08a7.81,7.81,0,0,1,7.81-7.8h.34A11.09,11.09,0,0,1,141.59,334.76Z"/><path class="cls-18" d="M115.46,313.25l-2,.31a.76.76,0,0,1-.89-.63h0a.78.78,0,0,1,.64-.9l2-.31a.78.78,0,0,1,.9.64h0A.77.77,0,0,1,115.46,313.25Z"/><path class="cls-18" d="M116.35,316.34l-2,.31a.77.77,0,0,1-.89-.63v0a.77.77,0,0,1,.63-.89l2-.31a.76.76,0,0,1,.89.63h0A.78.78,0,0,1,116.35,316.34Z"/><path class="cls-18" d="M117.65,319l-1.94.61a.79.79,0,0,1-1-.49v0a.77.77,0,0,1,.49-1l1.94-.61a.77.77,0,0,1,1,.49v0A.79.79,0,0,1,117.65,319Z"/><path class="cls-18" d="M119.57,321.26a.73.73,0,0,1-.29.29l-1.79.95a.78.78,0,0,1-1-.29v0a.77.77,0,0,1,.31-1.05l1.78-.95h0a.76.76,0,0,1,1,.3h0A.76.76,0,0,1,119.57,321.26Z"/><path class="cls-18" d="M121.9,322.77a.55.55,0,0,1-.13.25l-1.29,1.58a.79.79,0,0,1-1.09.12h0a.79.79,0,0,1-.12-1.09l1.29-1.57,0,0a.77.77,0,0,1,1.06-.1h0A.75.75,0,0,1,121.9,322.77Z"/><path class="cls-18" d="M124.58,323.57a.61.61,0,0,1,0,.3l-.61,1.94a.76.76,0,0,1-1,.52h0a.78.78,0,0,1-.53-1l.61-1.94a1.08,1.08,0,0,1,.08-.19v0l.14-.14a.38.38,0,0,1,.16-.11h0a.72.72,0,0,1,.56,0h0A.75.75,0,0,1,124.58,323.57Z"/><path class="cls-18" d="M112.19,341.7l-.74-.21-2.58-.87v1.08H92.72v-3.95h49.79v3.95Z"/><path class="cls-6" d="M76.08,329.8v2.7a55.64,55.64,0,0,1-11.53-1c-1.25-.25-2.47-.54-3.69-.89s-2.53-.78-3.77-1.27c-1-.4-2.06-.85-3.06-1.34a35.62,35.62,0,0,1-7.37-4.77,6.11,6.11,0,0,0,1.17-.44.77.77,0,0,1,.25-.83h0a.78.78,0,0,1,1.07.1,7.33,7.33,0,0,0,.9-.68.39.39,0,0,0,.1-.08.8.8,0,0,1,0-.78h0a.77.77,0,0,1,1.06-.3h0a8.4,8.4,0,0,0,.84-1.17.82.82,0,0,1-.24-.15l.25.12a.61.61,0,0,0,.18.09,28.81,28.81,0,0,0,3.82,1.55,33.41,33.41,0,0,0,3.26.89,31.48,31.48,0,0,0,15.89-.64l.23-.06c0,.37.1.74.14,1.12s.08.54.1.81c.06.48.1,1,.14,1.47a4.78,4.78,0,0,1,.06.53c0,.44.06.88.08,1.31l0,.41v.07c0,.25,0,.5,0,.77s0,.66,0,1C76.08,328.79,76.08,329.3,76.08,329.8Z"/><path class="cls-6" d="M121.9,322.77a6.88,6.88,0,0,0,1.24.47,36.26,36.26,0,0,1-7.43,4.79c-.64.31-1.29.61-1.94.88-.37.16-.74.31-1.12.45a38.5,38.5,0,0,1-3.71,1.25c-1.24.36-2.5.65-3.75.91a56.64,56.64,0,0,1-11.55,1V329.8c0-.5,0-1,0-1.51s0-1.17.08-1.76v-.07c0-.28,0-.57.05-.86s0-.57.06-.86c.11-1.31.25-2.63.44-3.92l.28.07a31.51,31.51,0,0,0,15.84.65,28.53,28.53,0,0,0,3.26-.88,29.62,29.62,0,0,0,4-1.62,8.38,8.38,0,0,0,.83,1.15h0a.76.76,0,0,1,1,.3h0a.76.76,0,0,1,0,.77.35.35,0,0,0,.1.08,7.65,7.65,0,0,0,.9.69.77.77,0,0,1,1.06-.1h0A.75.75,0,0,1,121.9,322.77Z"/><path class="cls-2" d="M84.67,187.81l-.23,3.78v0l-.24,4,0,.66-3,50.08v0a16.55,16.55,0,0,1-17.73,15.23l-.34,0a17,17,0,0,1-3-.51A16.5,16.5,0,0,1,48,247.19a17.34,17.34,0,0,1-.08-3.31l.51-7.6,1.6-27.2,1.4-23.81c0-.17,0-.35.05-.52a16.62,16.62,0,0,1,12.84-14.36,16.83,16.83,0,0,1,4.83-.33l.34,0a16.92,16.92,0,0,1,3.13.54h0a16.53,16.53,0,0,1,7.75,4.74,11.4,11.4,0,0,1,.84,1A16.44,16.44,0,0,1,84.67,187.81Z"/><path class="cls-2" d="M121.76,247.2a16.6,16.6,0,0,1-15.14,14.41l-.33,0a16.54,16.54,0,0,1-17.73-15.23v-.1l-3-50.44,0-.28-.23-4-.23-3.81a16.51,16.51,0,0,1,13.46-17.5,14.43,14.43,0,0,1,1.75-.23l.33,0a16.22,16.22,0,0,1,5.46.49,15.37,15.37,0,0,1,2.14.72,16.47,16.47,0,0,1,10.07,13.48,4.6,4.6,0,0,1,.06.52l.14,2.41h0l2.86,48.59.5,7.6A16,16,0,0,1,121.76,247.2Z"/><path class="cls-2" d="M81.7,318.68a8.18,8.18,0,0,1-5.7,7.85h0a7.77,7.77,0,0,1-3.88.27h0a1.2,1.2,0,0,1-.2,0l-13.36-2.61h0l-.32-.07-3-.57-1.34-.26a8.37,8.37,0,0,1-3.86-1.91,8.18,8.18,0,0,1-2.77-6.24l.09-9.2.06-13.81,0-2.11.07-6.64,0-2.91.15-13.64.18-16.88v-1.75c0-.33,0-.66,0-1a16.49,16.49,0,0,1,16.65-15.36H65a16.51,16.51,0,0,1,16.21,14.53v0a13.44,13.44,0,0,1,.13,2.11l.22,34.83,0,6.64,0,2.11.05,13.81Z"/><path class="cls-2" d="M122.44,315.11a8.24,8.24,0,0,1-6.64,8.15l-1.34.26-1.74.34-1.52.3h0l-13.35,2.61-.21,0a7.8,7.8,0,0,1-3.89-.27A8.18,8.18,0,0,1,88,318.68l.08-12.77,0-13.81,0-2.11,0-6.64.22-34.83a16.11,16.11,0,0,1,.12-2.21,16.5,16.5,0,0,1,16.23-14.48h.32a16.48,16.48,0,0,1,16.66,15.37c0,.32,0,.65,0,1l0,1.75L122,266.8l.15,13.64,0,2.91.06,6.64,0,2.11.07,13.81Z"/><path class="cls-19" d="M60.12,241.2v20.68a4.93,4.93,0,0,1-4.92,4.92H47.73l.18-16.88v-1.75c0-.33,0-.66,0-1a17.34,17.34,0,0,1-.08-3.31l.51-7.6h6.8A4.92,4.92,0,0,1,60.12,241.2Z"/><path class="cls-19" d="M122,266.8h-7.48a4.93,4.93,0,0,1-4.91-4.92V241.2a4.91,4.91,0,0,1,4.91-4.92h6.8l.5,7.6a16,16,0,0,1-.07,3.32c0,.32,0,.65,0,1l0,1.75Z"/><path class="cls-6" d="M118.27,184.75l.1-.05V169.5l3.1-32.83c-.37,0-.75,0-1.12,0h0a46.79,46.79,0,0,0-26.59,7.5A6.06,6.06,0,0,0,97,148.41a9.43,9.43,0,0,0,1.74.73l.28.07,0,1.29q-.27,9-.51,18.08c0,.3,0,.62,0,.92a5.51,5.51,0,0,0,0,.81,3.28,3.28,0,0,0,.71,1.74,1.89,1.89,0,0,0,2.76,0,1.37,1.37,0,0,0,.15.92c-2.63.57-5.78,1.1-9.56,1.55,2.51.3,16.25-.55,24.43,10.86.51.71,1,1.45,1.46,2.25l-.14-2.41A4.6,4.6,0,0,0,118.27,184.75Zm-12.58-12.63a6.42,6.42,0,0,0,.37-1.57c0-.33,0-.66.07-1v-.06q.5-9.5,1-19c0-.18,0-.35,0-.52a19.36,19.36,0,0,1,3.75.52c3.92,1,5.07,3.43,4.65,8.21-.35,4,.63,7.76-3.85,10.79a17.45,17.45,0,0,1-3.5,1.77C107.45,171.56,106.61,171.85,105.69,172.12Z"/><path class="cls-6" d="M112.72,323.86l-1.52.3h0l-13.35,2.61-.21,0a7.8,7.8,0,0,1-3.89-.27A8.18,8.18,0,0,1,88,318.68l.08-12.77,0-13.81,0-2.11,0-6.64.22-34.83a16.11,16.11,0,0,1,.12-2.21l-3-50.44,0-.28q-.66,0-1.32,0l0,.66-3,50.08v0a13.44,13.44,0,0,1,.13,2.11l.22,34.83,0,6.64,0,2.11.05,13.81.08,12.77a8.18,8.18,0,0,1-5.7,7.85h0a7.77,7.77,0,0,1-3.88.27h0a1.2,1.2,0,0,1-.2,0l-13.36-2.61h0l-.32-.07.38-.14c5.3-2.11,10-5.25,13.06-9.95.13-.2.26-.42.38-.63a18.1,18.1,0,0,0,1-2c2.45-5.37,2.69-11.58,2.88-17.54q.43-14.77.88-29.56a22.12,22.12,0,0,0-.61-7.28,8.81,8.81,0,0,0-.53-1.37C74.4,253,72,252.38,65.32,251.53c13.15-.62,13.08-8.5,12.92-12.75,0-.66,0-1.22,0-1.67.52-10.75.24-21.57,1.57-32.26.52-4.17.19-7.22-1.16-9.54s-3.79-4-7.47-5.3a88.67,88.67,0,0,0,13.28,1.58l.85,0A58.93,58.93,0,0,0,98.39,190a14.24,14.24,0,0,0-3.91,4.39c-2.79,4.71-3.4,10.92-3.58,16.59q-.37,12.1.12,24.21c.06,1.3,0,2.77,0,4.28,0,5.14,1.22,10.82,12.8,12.05-1.65.32-8,.16-11.07,4.65A10.42,10.42,0,0,0,91.08,262c-.29,12.57.73,25.14,1.1,37.71.13,4.85.34,9.91,2.73,14.14.12.21.25.43.38.63h0c2.51,4,6.79,6.63,11.29,8.06a35.94,35.94,0,0,0,4.44,1.09C111.58,323.69,112.15,323.78,112.72,323.86Z"/><path class="cls-7" d="M51.64,125.56l-3.76,11.12,0,.06-.35,1h0a11.3,11.3,0,0,1-7.15,7.61l-.21.07C34.3,147.53,28,144.76,26,139.27l-1.11-4.87a17.46,17.46,0,0,0,2.5,3.12,12.23,12.23,0,0,0,9.21,3.67A13.13,13.13,0,0,0,44.79,137l.25-.25a42.27,42.27,0,0,0,2.51-4.08h0C49.16,129.86,51,126.54,51.64,125.56Z"/><path class="cls-6" d="M80.35,175.36c-6.69-.75-14.33-1.2-20.51-3.26a26.9,26.9,0,0,1-3.42-1.41c3-.26,5.48-.32,7.87-.3,2.62,0,5.18.15,8.3.23h0c1.61,0,3.38.07,5.39.07-1-.44-2-.83-3-1.19-3.45-1.21-7-2.09-10.47-3.43-7.52-3-8.9-10.2-8.94-15.57a20.31,20.31,0,0,1,0-2.09c0-1,.11-1.89.18-2.59,1.83-20.57,3.8-28,1.81-40.83a109.63,109.63,0,0,1-5,17.8q-.4,1.35-.84,2.64c-.43,1.3-.87,2.54-1.3,3.78,0-.09-.7,2-1.61,4.68l.29,4.48,0-.08,2.22,31.21v15.2l.08.05c0,.17,0,.35-.05.52L50,209.08c.8-7.63,2.28-15.43,7.3-21a7.54,7.54,0,0,1,.55-.58c5.81-5.93,14.82-9.84,23.34-11.15,1.24-.19,2.47-.33,3.68-.4C83.43,175.73,81.92,175.53,80.35,175.36Z"/><path class="cls-18" d="M55.55,96.27l1.07,10.39,12-1.23L67.52,95Zm11,7.7-8.16.84-.73-7.08,8.15-.84Z"/><path class="cls-18" d="M102.79,95l-1.08,10.4,12,1.23,1.07-10.39Zm1.74,1.86,8.15.84-.73,7.08L103.8,104Z"/><path class="cls-9" d="M94,122.92a.13.13,0,0,0,0-.06A3.61,3.61,0,0,1,98,120.18a100,100,0,0,1,17.52,4.13v6.61a93.73,93.73,0,0,0-18.83-4.56A3,3,0,0,1,94,122.92Z"/><path class="cls-20" d="M106.62,94.55h0a5.73,5.73,0,0,0-.41-2.06c-1-2.6-3.6-4.67-7.6-3.31l-6.17,1.76a2.29,2.29,0,0,0-1.66,2.2V94H100l1,3.42v7.72h4.79l.71-9.56A6.37,6.37,0,0,0,106.62,94.55Z"/><path class="cls-21" d="M102.22,103.92V97.2l-1.32-4.43H92a1.11,1.11,0,0,1,.75-.71L99,90.29h0a6.54,6.54,0,0,1,2-.37,4.4,4.4,0,0,1,4.1,3,4.62,4.62,0,0,1,.33,1.65v.06a4.37,4.37,0,0,1-.06.72v0l-.63,8.53Z"/><path class="cls-20" d="M91.5,93.93a.36.36,0,1,0-.36.36A.36.36,0,0,0,91.5,93.93Z"/><path class="cls-20" d="M92.22,93.93a.36.36,0,1,0-.36.36A.36.36,0,0,0,92.22,93.93Z"/><path class="cls-20" d="M92.94,93.93a.36.36,0,1,0-.36.36A.36.36,0,0,0,92.94,93.93Z"/><path class="cls-20" d="M93.66,93.93a.36.36,0,1,0-.36.36A.36.36,0,0,0,93.66,93.93Z"/><path class="cls-20" d="M94.38,93.93a.36.36,0,1,0-.36.36A.36.36,0,0,0,94.38,93.93Z"/><path class="cls-20" d="M95.1,93.93a.36.36,0,1,0-.36.36A.36.36,0,0,0,95.1,93.93Z"/><path class="cls-20" d="M95.82,93.93a.36.36,0,1,0-.36.36A.36.36,0,0,0,95.82,93.93Z"/><path class="cls-20" d="M96.54,93.93a.36.36,0,0,0-.36-.36.36.36,0,0,0,0,.72A.36.36,0,0,0,96.54,93.93Z"/><path class="cls-20" d="M97.25,93.93a.36.36,0,1,0-.35.36A.36.36,0,0,0,97.25,93.93Z"/><path class="cls-20" d="M98,93.93a.36.36,0,0,0-.36-.36.36.36,0,0,0,0,.72A.36.36,0,0,0,98,93.93Z"/><path class="cls-20" d="M98.69,93.93a.36.36,0,0,0-.36-.36.36.36,0,0,0,0,.72A.36.36,0,0,0,98.69,93.93Z"/><path class="cls-20" d="M99.41,93.93a.36.36,0,1,0-.36.36A.36.36,0,0,0,99.41,93.93Z"/><path class="cls-20" d="M97.09,105.09l-2,3.93a4.22,4.22,0,0,0-.45,2.24l1.64,23.11h5V110.29l1.15-5.32Z"/><path class="cls-22" d="M102.21,150.5l3.4.18L105,169.44a1.29,1.29,0,0,1-1.3,1.25h0a1.29,1.29,0,0,1-1.29-1.28Z"/><polygon class="cls-22" points="106.17 133.03 105.81 144.52 105.74 146.32 102.17 146.32 102.17 146.27 102.15 144.78 102.12 141.21 102.12 141.16 102.07 135.47 102.05 133.02 104.76 133.03 106.17 133.03"/><path class="cls-23" d="M105.54,104.49l-4.84-3.64H92.36l.76,2.4a6.09,6.09,0,0,0,2.14,3l6.59,4.91.2,21.86,4.12,0,.83-25.5A3.65,3.65,0,0,0,105.54,104.49Z"/><path class="cls-20" d="M92.36,100.85h8.34v-3H91.46v.93A2.7,2.7,0,0,0,92.36,100.85Z"/><path class="cls-20" d="M92.17,97.86a.36.36,0,1,0-.71,0,.36.36,0,1,0,.71,0Z"/><path class="cls-20" d="M92.89,97.86a.36.36,0,0,0-.72,0,.36.36,0,0,0,.72,0Z"/><path class="cls-20" d="M93.61,97.86a.36.36,0,0,0-.72,0,.36.36,0,0,0,.72,0Z"/><path class="cls-20" d="M94.33,97.86a.36.36,0,0,0-.72,0,.36.36,0,0,0,.72,0Z"/><path class="cls-20" d="M95.05,97.86a.36.36,0,0,0-.72,0,.36.36,0,0,0,.72,0Z"/><path class="cls-20" d="M95.77,97.86a.36.36,0,0,0-.72,0,.36.36,0,0,0,.72,0Z"/><path class="cls-20" d="M96.49,97.86a.36.36,0,0,0-.72,0,.36.36,0,0,0,.72,0Z"/><path class="cls-20" d="M97.21,97.86a.36.36,0,0,0-.72,0,.36.36,0,0,0,.72,0Z"/><path class="cls-20" d="M97.93,97.86a.36.36,0,0,0-.72,0,.36.36,0,0,0,.72,0Z"/><path class="cls-20" d="M98.65,97.86a.36.36,0,0,0-.72,0,.36.36,0,0,0,.72,0Z"/><path class="cls-20" d="M99.37,97.86a.36.36,0,0,0-.72,0,.36.36,0,0,0,.72,0Z"/><path class="cls-20" d="M100.09,97.86a.36.36,0,0,0-.72,0,.36.36,0,0,0,.72,0Z"/><path class="cls-24" d="M95.25,102.2a.64.64,0,0,1-.64.64.64.64,0,0,1,0-1.28A.64.64,0,0,1,95.25,102.2Z"/><path class="cls-24" d="M99.69,102.2a.64.64,0,0,1-.64.64.64.64,0,0,1,0-1.28A.64.64,0,0,1,99.69,102.2Z"/><path class="cls-24" d="M102.09,105.63a1.39,1.39,0,1,1-1.39-1.39A1.39,1.39,0,0,1,102.09,105.63Z"/><path class="cls-20" d="M100.43,136v33.11a1.61,1.61,0,0,1-3.21,0V136a1.22,1.22,0,0,1,.1-.51.44.44,0,0,1,.08-.2.73.73,0,0,1,.17-.26,1.1,1.1,0,0,1,.3-.31,2,2,0,0,1,.35-.2,1.64,1.64,0,0,1,.6-.11l.84.25.25.18h0a.52.52,0,0,1,.16.17l.26.47,0,.11a1.45,1.45,0,0,1,0,.29A.23.23,0,0,1,100.43,136Z"/><path class="cls-23" d="M100.58,137.17a.33.33,0,0,1-.28.31l-3,.33a.25.25,0,0,1-.27-.25h0a.3.3,0,0,1,.27-.3l3-.33a.24.24,0,0,1,.28.24Z"/><path class="cls-23" d="M100.58,138.05a.32.32,0,0,1-.28.31l-3,.33a.23.23,0,0,1-.27-.24h0a.31.31,0,0,1,.27-.31l3-.33a.24.24,0,0,1,.28.24Z"/><path class="cls-23" d="M100.58,138.94a.31.31,0,0,1-.28.3l-3,.33a.23.23,0,0,1-.27-.24h0a.32.32,0,0,1,.27-.31l3-.33a.26.26,0,0,1,.28.25Z"/><path class="cls-23" d="M100.58,139.82a.33.33,0,0,1-.28.31l-3,.33a.25.25,0,0,1-.27-.25h0a.3.3,0,0,1,.27-.3l3-.33a.24.24,0,0,1,.28.24Z"/><path class="cls-23" d="M100.58,140.7a.32.32,0,0,1-.28.31l-3,.33a.24.24,0,0,1-.27-.25h0a.31.31,0,0,1,.27-.3l3-.33a.24.24,0,0,1,.28.24Z"/><path class="cls-23" d="M100.58,141.59a.31.31,0,0,1-.28.3l-3,.33a.23.23,0,0,1-.27-.24h0a.32.32,0,0,1,.27-.31l3-.33a.26.26,0,0,1,.28.25Z"/><path class="cls-23" d="M100.58,142.47a.33.33,0,0,1-.28.31l-3,.33a.25.25,0,0,1-.27-.25h0a.3.3,0,0,1,.27-.3l3-.33a.24.24,0,0,1,.28.24Z"/><path class="cls-23" d="M100.58,143.35a.33.33,0,0,1-.28.31l-3,.33a.24.24,0,0,1-.27-.25h0a.31.31,0,0,1,.27-.3l3-.33a.24.24,0,0,1,.28.24Z"/><path class="cls-23" d="M100.58,144.24a.32.32,0,0,1-.28.3l-3,.33a.23.23,0,0,1-.27-.24h0a.32.32,0,0,1,.27-.31l3-.33a.25.25,0,0,1,.28.25Z"/><path class="cls-23" d="M100.58,145.12a.33.33,0,0,1-.28.31l-3,.32a.23.23,0,0,1-.27-.24h0a.3.3,0,0,1,.27-.3l3-.33a.24.24,0,0,1,.28.24Z"/><path class="cls-23" d="M100.57,146a.3.3,0,0,1-.14.26h0l-.11,0-3,.33a.16.16,0,0,1-.12,0,.24.24,0,0,1-.16-.22.5.5,0,0,1,0-.13h0a.32.32,0,0,1,.12-.14l.12,0,3-.33a.32.32,0,0,1,.13,0A.23.23,0,0,1,100.57,146Z"/><path class="cls-23" d="M100.57,146.89a.29.29,0,0,1-.14.25.29.29,0,0,1-.13.05l-3,.34a.22.22,0,0,1-.12,0,.25.25,0,0,1-.16-.24.34.34,0,0,1,.16-.26l.12,0,3-.33a.32.32,0,0,1,.13,0A.23.23,0,0,1,100.57,146.89Z"/><path class="cls-23" d="M100.57,147.77a.3.3,0,0,1-.14.26.28.28,0,0,1-.13,0l-3,.34a.16.16,0,0,1-.12,0,.23.23,0,0,1-.16-.21.34.34,0,0,1,.16-.28l.12,0,3-.32a.21.21,0,0,1,.13,0A.21.21,0,0,1,100.57,147.77Z"/><path class="cls-23" d="M100.57,148.66a.29.29,0,0,1-.14.25.29.29,0,0,1-.13.05l-3,.33a.12.12,0,0,1-.12,0,.22.22,0,0,1-.16-.22.3.3,0,0,1,.16-.26l.12,0,3-.33a.32.32,0,0,1,.13,0A.24.24,0,0,1,100.57,148.66Z"/><path class="cls-23" d="M100.57,149.54a.29.29,0,0,1-.14.25.29.29,0,0,1-.13.05l-2.51.28h0l-.44,0a.22.22,0,0,1-.12,0,.21.21,0,0,1-.14-.16.1.1,0,0,1,0-.07.32.32,0,0,1,.16-.26l.12,0,3-.32a.21.21,0,0,1,.13,0C100.52,149.34,100.57,149.42,100.57,149.54Z"/><path class="cls-23" d="M100.57,150.42a.3.3,0,0,1-.14.26.28.28,0,0,1-.13,0l-3,.33a.16.16,0,0,1-.12,0,.22.22,0,0,1-.16-.22c0-.07,0-.13.16-.27l.12,0,1.8-.2h0l1.14-.13a.17.17,0,0,1,.13,0A.23.23,0,0,1,100.57,150.42Z"/><path class="cls-23" d="M100.58,151.3a.33.33,0,0,1-.28.31l-3,.33a.25.25,0,0,1-.27-.25h0a.3.3,0,0,1,.27-.3l3-.33a.24.24,0,0,1,.28.24Z"/><path class="cls-23" d="M100.58,152.18a.32.32,0,0,1-.28.31l-3,.33a.23.23,0,0,1-.27-.24h0a.31.31,0,0,1,.27-.31l3-.33a.24.24,0,0,1,.28.24Z"/><path class="cls-23" d="M100.58,153.07a.31.31,0,0,1-.28.3l-3,.33a.23.23,0,0,1-.27-.24h0a.32.32,0,0,1,.27-.31l3-.33a.26.26,0,0,1,.28.25Z"/><rect class="cls-25" x="95.84" y="134.37" width="5.79" height="2.71" rx="0.3"/><path class="cls-24" d="M96.4,136.66a.18.18,0,0,1-.17.18h0a.18.18,0,0,1-.17-.18v-1.87a.17.17,0,0,1,.17-.17h0a.17.17,0,0,1,.17.17Z"/><path class="cls-24" d="M96.9,136.66a.18.18,0,0,1-.17.18h0a.18.18,0,0,1-.17-.18v-1.87a.17.17,0,0,1,.17-.17h0a.17.17,0,0,1,.17.17Z"/><path class="cls-24" d="M97.4,136.66a.17.17,0,0,1-.17.18h0a.18.18,0,0,1-.17-.18v-1.87a.17.17,0,0,1,.17-.17h0a.16.16,0,0,1,.17.17Z"/><path class="cls-24" d="M97.9,136.66a.17.17,0,0,1-.17.18h0a.18.18,0,0,1-.17-.18v-1.87a.17.17,0,0,1,.17-.17h0a.16.16,0,0,1,.17.17Z"/><path class="cls-24" d="M98.4,136.66a.17.17,0,0,1-.16.18h0a.17.17,0,0,1-.17-.18v-1.87a.16.16,0,0,1,.17-.17h0a.16.16,0,0,1,.16.17Z"/><path class="cls-24" d="M98.91,136.66a.18.18,0,0,1-.17.18h0a.17.17,0,0,1-.17-.18v-1.87a.16.16,0,0,1,.17-.17h0a.17.17,0,0,1,.17.17Z"/><path class="cls-24" d="M99.41,136.66a.18.18,0,0,1-.17.18h0a.17.17,0,0,1-.17-.18v-1.87a.16.16,0,0,1,.17-.17h0a.17.17,0,0,1,.17.17Z"/><path class="cls-24" d="M99.91,136.66a.18.18,0,0,1-.17.18h0a.18.18,0,0,1-.17-.18v-1.87a.17.17,0,0,1,.17-.17h0a.17.17,0,0,1,.17.17Z"/><path class="cls-24" d="M100.41,136.66a.18.18,0,0,1-.17.18h0a.18.18,0,0,1-.17-.18v-1.87a.17.17,0,0,1,.17-.17h0a.17.17,0,0,1,.17.17Z"/><path class="cls-24" d="M100.91,136.66a.17.17,0,0,1-.17.18h0a.18.18,0,0,1-.17-.18v-1.87a.17.17,0,0,1,.17-.17h0a.16.16,0,0,1,.17.17Z"/><path class="cls-24" d="M101.41,136.66a.17.17,0,0,1-.17.18h0a.18.18,0,0,1-.17-.18v-1.87a.17.17,0,0,1,.17-.17h0a.16.16,0,0,1,.17.17Z"/><rect class="cls-26" x="89.2" y="123.96" width="15.59" height="5.75" rx="2.85"/><rect class="cls-26" x="88.49" y="129.71" width="16.3" height="5.75" rx="2.85"/><rect class="cls-26" x="90.21" y="135.46" width="14.58" height="5.75" rx="2.85"/><path class="cls-9" d="M104.79,143.69v.06a2.52,2.52,0,0,1-.17.9,2.5,2.5,0,0,1-2.36,1.62h-7.9a2.53,2.53,0,0,1-2.48-2.06,2.38,2.38,0,0,1,0-.46v-.06a2.53,2.53,0,0,1,2-2.48,2.73,2.73,0,0,1,.5-.05h8.06A2.53,2.53,0,0,1,104.79,143.69Z"/><path class="cls-10" d="M127.15,141.68c-.15.54-.33,1.07-.52,1.61,0,.14-.11.28-.16.43l-6.6-.94a8.37,8.37,0,0,1-6.84,3.54h-10.9a2.63,2.63,0,0,1-.49,0h0a2.38,2.38,0,0,1-1.19-.61,1,1,0,0,1-.22-.23,1.77,1.77,0,0,1-.34-.5,1,1,0,0,1-.06-.14,1.42,1.42,0,0,1-.08-.18,2.35,2.35,0,0,1-.13-.82v0a2.6,2.6,0,0,1,.06-.56,1.38,1.38,0,0,1,.12-.34,1.85,1.85,0,0,1,.31-.59,2,2,0,0,1,.34-.38,2.46,2.46,0,0,1,1.69-.66h-.92a2.87,2.87,0,0,1-.52-.05l-.25,0a1.3,1.3,0,0,1-.25-.1h0a2.65,2.65,0,0,1-.78-.45,1.76,1.76,0,0,1-.31-.3,2.28,2.28,0,0,1-.36-.5,2,2,0,0,1-.16-.33,3,3,0,0,1-.16-.53,1.75,1.75,0,0,1,0-.32,1.55,1.55,0,0,1,0-.21v-.06a2.81,2.81,0,0,1,0-.29,1.94,1.94,0,0,1,.07-.33,2.25,2.25,0,0,1,.19-.57,0,0,0,0,1,0,0,1.86,1.86,0,0,1,.14-.25h0a.8.8,0,0,1,.13-.19,1,1,0,0,1,.15-.2,2.89,2.89,0,0,1,.35-.35l.16-.11a1.9,1.9,0,0,1,.34-.2l.16-.08.3-.12h0l.16,0,.34-.05h-.84l-.16,0-.34-.08-.16-.05a3.68,3.68,0,0,1-.35-.15.54.54,0,0,1-.15-.09,2.46,2.46,0,0,1-.34-.22,2.89,2.89,0,0,1-.35-.35.49.49,0,0,1-.12-.13,2.82,2.82,0,0,1-.61-1.75v-.06a2.85,2.85,0,0,1,2.85-2.84,2.86,2.86,0,0,1-2.85-2.85v-.06c0-.12,0-.22,0-.34a2.86,2.86,0,0,1,2.83-2.51H113a8,8,0,0,1,2.52.4,8.32,8.32,0,0,1,3.79,2.48l7.13-.52A21.81,21.81,0,0,1,127.15,141.68Z"/><path class="cls-7" d="M148.53,134.83v.22c0,5.84-4.67,11.17-10.37,10.57-2.47-.25-8.3-1.58-11.53-2.33,0,.14-.11.28-.16.43l-6.6-.94a8.37,8.37,0,0,1-6.84,3.54h-10.9a2.63,2.63,0,0,1-.49,0h-1.21v.39a.23.23,0,0,1,.14.23.29.29,0,0,1-.14.25v.41a.21.21,0,0,1,.14.22.3.3,0,0,1-.14.26v.4a.24.24,0,0,1,.14.23.29.29,0,0,1-.14.25v.41c.09,0,.14.1.14.22a.29.29,0,0,1-.14.25v.41a.23.23,0,0,1,.14.22h-.14c-.43,0-.84-.06-1.27-.11h0a12.16,12.16,0,0,1-1.35-.18h0c-.19,0-.37-.06-.56-.09l-.14,0a.1.1,0,0,1,0-.07.32.32,0,0,1,.16-.26v-.4a.22.22,0,0,1-.16-.22.3.3,0,0,1,.16-.26v-.4a.23.23,0,0,1-.16-.21.34.34,0,0,1,.16-.28v-.38a.25.25,0,0,1-.16-.24.34.34,0,0,1,.16-.26v-.39a.24.24,0,0,1-.16-.22.5.5,0,0,1,0-.13H94.36a2.53,2.53,0,0,1-2.48-2.06c1.73.17,3.46.34,5.2.46h.14l1.25.06h0l1.33,0c.2,0,.41,0,.62,0,.57,0,1.15,0,1.72,0,.83,0,1.66-.05,2.47-.13.4,0,.8-.08,1.19-.13l.81-.11c5-.79,10-3,13-7.12a16.23,16.23,0,0,0,4.7,3.34,16.91,16.91,0,0,0,2.78,1.05,16.62,16.62,0,0,0,20.64-10.86A11.23,11.23,0,0,1,148.53,134.83Z"/><path class="cls-5" d="M109.72,37.63c-.7,2.89-2.14,6.78-3.74,7.35a2.07,2.07,0,0,1-2.41-.32c-.12-.12-.19-.21-.21-.23-.9,4.18-1.26,7.9-2.77,10.12a70.61,70.61,0,0,1-4.42,6.06c-2.9,3.34-5.29,4.17-10.76,4.17h-.06c-5.49,0-7.88-.83-10.76-4.17a70.14,70.14,0,0,1-4.44-6.06c-1.5-2.22-1.87-5.94-2.75-10.12,0,0-.09.11-.22.23a2.07,2.07,0,0,1-2.4.32c-1.62-.57-3.06-4.46-3.74-7.35-.8-3.32.59-5.72,2.59-5.72a3.11,3.11,0,0,1,1.51.43,38.43,38.43,0,0,1-.65-5c-1-14.46,8.68-22.55,20.88-22.58.63,0,1.26,0,1.88.08a21.77,21.77,0,0,1,10.3,3.24c5.77,3.62,9.35,10.19,8.72,19.26a38.46,38.46,0,0,1-.66,5,3.17,3.17,0,0,1,1.51-.43C109.12,31.91,110.52,34.31,109.72,37.63Z"/><path class="cls-27" d="M107.14,31.84s0,0,0,.06h0c-1.85,1-2.82,2.37-3.55,8-1.34.37-1.92.45-3.14.86.51-2,.93-3.91,1.28-5.67,1.45-7.54,1.46-12.79.69-16.45-1-4.84-3.4-6.92-5.57-7.89a15.37,15.37,0,0,0-3.61-1,80.64,80.64,0,0,0-15.69,0c-2,.41-7.49.8-9.19,8.86a24,24,0,0,0-.48,4.25A54.35,54.35,0,0,0,69,35c.35,1.79.77,3.69,1.28,5.74-1.22-.41-1.79-.49-3.12-.86-.73-5.59-1.72-6.94-3.55-8h0s0,0,0-.06c-.92-5.45-1-9.69-.39-13.23A19.35,19.35,0,0,1,67.82,9.1c8.32-9.82,29.48-8.25,35.1,0a26,26,0,0,1,4.36,9.51C108,22.14,108.05,26.31,107.14,31.84Z"/><path class="cls-28" d="M92.65,4.79c1.55,0,3.32.11,4.29,1.32,1.21,1.49.45,3.73-.54,5.37-4,6.68-10.33,12.88-19.22,13.18,1-.75,2.64-2.26,3-3.69a23.65,23.65,0,0,1-15.4,1.34C66.3,18,68,13.42,71.34,10.23A19.87,19.87,0,0,1,81.4,5.48,59.58,59.58,0,0,1,92.65,4.79Z"/><path class="cls-28" d="M79.77,36.48a2.4,2.4,0,1,1-2.49-1.92A2.25,2.25,0,0,1,79.77,36.48Z"/><path class="cls-18" d="M78.67,36.61a1.28,1.28,0,1,1-1.34-1.13A1.24,1.24,0,0,1,78.67,36.61Z"/><path class="cls-4" d="M76.75,37.49a.45.45,0,0,1-.42.47h0a.44.44,0,0,1-.47-.42h0a.43.43,0,0,1,.42-.47h0a.44.44,0,0,1,.47.42Z"/><path class="cls-4" d="M78.88,35.66a.66.66,0,0,1-.62.69h0a.65.65,0,0,1-.68-.61h0a.64.64,0,0,1,.61-.69h0a.66.66,0,0,1,.69.61Z"/><path class="cls-28" d="M95.72,36.48a2.39,2.39,0,1,1-2.49-1.92A2.23,2.23,0,0,1,95.72,36.48Z"/><path class="cls-18" d="M94.63,36.61a1.28,1.28,0,1,1-1.35-1.13A1.24,1.24,0,0,1,94.63,36.61Z"/><path class="cls-4" d="M92.71,37.49a.45.45,0,0,1-.42.47h0a.44.44,0,0,1-.47-.42h0a.43.43,0,0,1,.42-.47h0a.45.45,0,0,1,.47.42Z"/><path class="cls-4" d="M94.83,35.66a.64.64,0,0,1-.61.69h0a.65.65,0,0,1-.69-.61h0a.66.66,0,0,1,.62-.69h0a.65.65,0,0,1,.68.61Z"/><path class="cls-27" d="M80.42,34.93a24.15,24.15,0,0,0-9.78.5,1.18,1.18,0,0,1-1.2-.67v0a.79.79,0,0,1,.32-1.18,27.43,27.43,0,0,1,11.13-1.62c1.2.07,2,.91,1.78,1.76v0A2,2,0,0,1,80.42,34.93Zm9.91,0a24.15,24.15,0,0,1,9.78.5,1.17,1.17,0,0,0,1.2-.67v0a.79.79,0,0,0-.32-1.18,27.41,27.41,0,0,0-11.13-1.62c-1.2.07-2,.91-1.78,1.76a0,0,0,0,1,0,0A2,2,0,0,0,90.33,34.93Z"/><path class="cls-29" d="M81.34,46.32c0,.3.54.75,1.42,1.21a7.28,7.28,0,0,0,3.49.84,4.73,4.73,0,0,0,2.9-1.13c.58-.52.83-1,.66-1.31s-.72-.34-1.48-.24-1.7.32-2.77.38S83.44,46,82.63,46,81.32,46,81.34,46.32Z"/><path class="cls-29" d="M85.74,33.08c1.44,3,5.11,5.46,4.08,13.3,0,0-5.65.32-4.81.16C89.05,45.73,89,43.2,85.74,33.08Z"/><g class="cls-30"><path class="cls-4" d="M83.5,45c.75.07,1.36-.22,1.36-.63,0-.11-.1-.71-.24-1.56s-.23-2-.35-3.05c-.06-.54-.12-1.09-.17-1.6s-.15-1-.21-1.39l-.21-1.34s-.08.51-.22,1.29c-.06.39-.14.84-.23,1.33s-.22,1-.33,1.52c-.22,1-.46,2.12-.59,3s-.19,1.45-.19,1.56C82.13,44.55,82.74,45,83.5,45Z"/></g><path class="cls-31" d="M85.34,53.06c-3.2.16-5.73-.75-6.57-2.64-.94,3,.63,6,6.57,6.43,6-.44,7.52-3.47,6.58-6.43C91.08,52.31,88.55,53.22,85.34,53.06Z"/><path class="cls-4" d="M85.34,55.14c-3.89-.09-6.1-1.68-7-3,0-.61.07-1.22.13-1.83a10.59,10.59,0,0,0,13.69,0c.06.61.11,1.22.13,1.83C91.45,53.46,89.24,55.05,85.34,55.14Z"/><path class="cls-32" d="M85.34,53.36h-.5A9,9,0,0,1,78.54,51a5.47,5.47,0,0,1-.4-.46h0c.09-.2.19-.41.29-.61l.21.23c.12.12.27.24.41.36a9.36,9.36,0,0,0,5.82,1.82l.47,0,.48,0a9.36,9.36,0,0,0,5.82-1.82c.14-.12.29-.24.41-.36l.21-.23c.1.2.2.41.29.61h0a5.47,5.47,0,0,1-.4.46,9,9,0,0,1-6.3,2.32Z"/><path class="cls-6" d="M107.14,31.84l-.08.06h0a50.31,50.31,0,0,1-5.33,3.16C91.08,40.46,80.19,40.62,69,35a50.39,50.39,0,0,1-5.3-3.09h0l-.09-.06c-.92-5.45-1-9.69-.39-13.23h44.05C108,22.14,108.05,26.31,107.14,31.84Z"/><path class="cls-2" d="M88.59,0H82.16A19.65,19.65,0,0,0,62.51,19.65l.42,6.76a119,119,0,0,1,44.91-.27l.4-6.49A19.65,19.65,0,0,0,88.59,0Z"/><path class="cls-6" d="M98,5.67C98.13,13.5,87.21,18.1,73.86,22a120.7,120.7,0,0,1,12.4-.67c6.33,0,12.77,2.32,19.17,3.34v-5A16.83,16.83,0,0,0,98,5.67Z"/><path class="cls-33" d="M64.41,25.77a5.85,5.85,0,0,0,.72,1.8,8,8,0,0,0,8.52,4.9c2-.39,3.86-1.66,5.79-2.53a16.14,16.14,0,0,1,5.93-1.41,16.19,16.19,0,0,1,5.94,1.41c1.92.87,3.74,2.14,5.79,2.53a8,8,0,0,0,8.52-4.9,6.16,6.16,0,0,0,.72-1.8C99.7,17.66,71.31,17.7,64.41,25.77Z"/><path class="cls-34" d="M80.06,3.1A16.83,16.83,0,0,0,64.74,19.69L65,23.31c2.62-2,4.81-3.12,7.43-3.39C70.28,12.08,74,6.77,80.06,3.1Z"/><path class="cls-29" d="M65.91,41.5a3.6,3.6,0,0,1-.07-1A10.23,10.23,0,0,1,66,39.41c.07-.41.18-.86.25-1.34a5.73,5.73,0,0,0,.09-1.57,3.73,3.73,0,0,0-.48-1.59,2.57,2.57,0,0,0-1.24-1.09,2.46,2.46,0,0,0-2.59.47,2.2,2.2,0,0,0-.66,1.59c0,.41.15.6.21.59s.09-.22.19-.54a2.15,2.15,0,0,1,.75-1.08,1.73,1.73,0,0,1,1.72-.14,2.19,2.19,0,0,1,1.06,1.88,9.39,9.39,0,0,1-.19,2.23l-.08,0a1.48,1.48,0,0,0-1.55.4,1.5,1.5,0,0,0-.31,1.57c.17.39.44.49.55.41s.12-.3.18-.54a1.63,1.63,0,0,1,.34-.73,1.69,1.69,0,0,1,.71-.38l.08,0c0,.36,0,.73,0,1.07a3.73,3.73,0,0,0,.24,1.15,2.41,2.41,0,0,0,1,1.34,1,1,0,0,0,.43.17c.11,0,.17,0,.18,0S66.15,42.69,65.91,41.5Z"/><path class="cls-29" d="M105.1,41.5a3.21,3.21,0,0,0,.08-1,10.23,10.23,0,0,0-.15-1.14c-.07-.41-.18-.86-.25-1.34a5.73,5.73,0,0,1-.09-1.57,3.73,3.73,0,0,1,.48-1.59,2.57,2.57,0,0,1,1.24-1.09,2.46,2.46,0,0,1,2.59.47,2.2,2.2,0,0,1,.66,1.59c0,.41-.15.6-.21.59s-.09-.22-.19-.54a2.15,2.15,0,0,0-.75-1.08,1.73,1.73,0,0,0-1.72-.14,2.19,2.19,0,0,0-1.06,1.88,9.39,9.39,0,0,0,.19,2.23l.08,0a1.5,1.5,0,0,1,1.86,2c-.17.39-.44.49-.55.41s-.12-.3-.18-.54a1.63,1.63,0,0,0-.34-.73,1.69,1.69,0,0,0-.71-.38l-.08,0c0,.36,0,.73,0,1.07a3.73,3.73,0,0,1-.24,1.15,2.41,2.41,0,0,1-1,1.34,1,1,0,0,1-.43.17c-.11,0-.17,0-.18,0S104.87,42.69,105.1,41.5Z"/><path class="cls-27" d="M100.81,39.19c0,.11,0,.26-.09.4s-.1.52-.17.8-.07.33-.11.5c-.43,2-1.2,4.89-2.78,6.51-1.79,1.85-4.9,3.1-7.33,2.6a32,32,0,0,0-5-.57,32.4,32.4,0,0,0-5,.57c-2.41.5-5.53-.75-7.33-2.6-1.56-1.62-2.34-4.47-2.78-6.51,0-.17-.08-.34-.11-.5-.07-.31-.13-.6-.18-.84s-.05-.26-.08-.36c-.84-.9-1.69.19-2.74.77.09,1.78.18,5,.21,5C69,65.38,79.86,67.17,85.35,67.17h.06c5.47,0,17.53-3.46,18-22.22,0,0,.1-3.2.19-5C102.5,39.38,101.66,38.29,100.81,39.19ZM86.13,58H84.67a1.35,1.35,0,0,0-1.24.79,1,1,0,0,1-1.51.48c-2.09-.92-4.22-3.25-3.78-4.47,1.1-3.1,3.33-1.86,7.25-1.86s6.42-1.24,7.16,1.82c.31,1.26-1.56,3.77-3.73,4.51a1.1,1.1,0,0,1-1.48-.55A1.37,1.37,0,0,0,86.13,58Z"/></g></g></svg>